<svg width="142" height="140" viewBox="0 0 142 140" fill="none" xmlns="http://www.w3.org/2000/svg">
<g filter="url(#filter0_d_0_1)">
<rect x="14" y="14" width="114" height="112" fill="#FCFCFB"/>
<rect x="14" y="14" width="114" height="112" fill="#F9F8F5"/>
</g>
<path d="M71.704 43.7C75.5487 43.7 78.9457 44.4373 81.895 45.912C84.8443 47.334 87.2933 49.3353 89.242 51.916C91.2433 54.444 92.7443 57.3933 93.745 60.764C94.7457 64.082 95.246 67.6107 95.246 71.35C95.246 76.4587 94.3507 81.1197 92.56 85.333C90.7693 89.4937 88.136 92.8117 84.66 95.287C81.184 97.7623 76.8653 99 71.704 99H52.428C51.322 99 50.374 98.6313 49.584 97.894C48.794 97.104 48.399 96.1297 48.399 94.971V47.729C48.399 46.5703 48.794 45.6223 49.584 44.885C50.374 44.095 51.322 43.7 52.428 43.7H71.704ZM70.914 91.416C74.6533 91.416 77.6817 90.4943 79.999 88.651C82.3163 86.8077 84.0017 84.385 85.055 81.383C86.161 78.3283 86.714 74.984 86.714 71.35C86.714 68.664 86.398 66.136 85.766 63.766C85.1867 61.3433 84.2387 59.2103 82.922 57.367C81.658 55.471 80.0253 53.9963 78.024 52.943C76.0753 51.837 73.7053 51.284 70.914 51.284H55.983L56.694 50.573V92.206L56.22 91.416H70.914Z" fill="black"/>
<path d="M107.082 98.921C105.765 98.921 104.738 98.5523 104.001 97.815C103.316 97.0777 102.974 96.0507 102.974 94.734V93.312C102.974 91.9953 103.316 90.9683 104.001 90.231C104.738 89.4937 105.765 89.125 107.082 89.125H107.951C109.267 89.125 110.268 89.4937 110.953 90.231C111.637 90.9683 111.98 91.9953 111.98 93.312V94.734C111.98 96.0507 111.637 97.0777 110.953 97.815C110.268 98.5523 109.267 98.921 107.951 98.921H107.082Z" fill="#6200FF"/>
<line x1="15" y1="15" x2="31" y2="15" stroke="black" stroke-width="2"/>
<line x1="15" y1="30" x2="15" y2="14" stroke="black" stroke-width="2"/>
<line x1="112" y1="15" x2="128" y2="15" stroke="black" stroke-width="2"/>
<line x1="127" y1="30" x2="127" y2="14" stroke="black" stroke-width="2"/>
<line x1="112" y1="125" x2="128" y2="125" stroke="black" stroke-width="2"/>
<line x1="127" y1="126" x2="127" y2="110" stroke="black" stroke-width="2"/>
<line x1="14" y1="125" x2="30" y2="125" stroke="black" stroke-width="2"/>
<line x1="15" y1="126" x2="15" y2="110" stroke="black" stroke-width="2"/>
<line x1="15" y1="39" x2="15" y2="101" stroke="#4400FF" stroke-width="2"/>
<line x1="127" y1="39" x2="127" y2="101" stroke="#4400FF" stroke-width="2"/>
<line x1="40" y1="15" x2="102" y2="15" stroke="#4400FF" stroke-width="2"/>
<line x1="40" y1="125" x2="102" y2="125" stroke="#4400FF" stroke-width="2"/>
<defs>
<filter id="filter0_d_0_1" x="0" y="0" width="142" height="140" filterUnits="userSpaceOnUse" color-interpolation-filters="sRGB">
<feFlood flood-opacity="0" result="BackgroundImageFix"/>
<feColorMatrix in="SourceAlpha" type="matrix" values="0 0 0 0 0 0 0 0 0 0 0 0 0 0 0 0 0 0 127 0" result="hardAlpha"/>
<feOffset/>
<feGaussianBlur stdDeviation="7"/>
<feComposite in2="hardAlpha" operator="out"/>
<feColorMatrix type="matrix" values="0 0 0 0 0.3 0 0 0 0 0 0 0 0 0 1 0 0 0 1 0"/>
<feBlend mode="normal" in2="BackgroundImageFix" result="effect1_dropShadow_0_1"/>
<feBlend mode="normal" in="SourceGraphic" in2="effect1_dropShadow_0_1" result="shape"/>
</filter>
</defs>
</svg>
