<svg viewBox="0 0 512 512" xmlns="http://www.w3.org/2000/svg" fill-rule="evenodd" clip-rule="evenodd" stroke-linejoin="round" stroke-miterlimit="2"><g fill-rule="nonzero"><path d="M195.633 410.551l57.962 57.982h94.087c11.47 0 20.694-9.322 20.694-20.694V230.517l-172.743 172.86c-2.05 1.932-2.05 5.144 0 7.174z" fill="#235dc1"/><path d="M48.058 168.89v94.086l57.982 57.982c2.03 2.03 5.242 2.03 7.173 0l172.861-172.861H68.732c-11.352 0-20.674 9.322-20.674 20.792z" fill="#3b6ec6"/><path d="M265.578 63.549l-139.515 213.48c-4.73 7.271-3.764 16.81 2.345 22.92l89.377 89.376c6.11 6.11 15.747 7.076 22.94 2.365l213.46-139.632c13.619-8.908 21.758-24.123 21.758-40.304V62.918c0-11.687-9.539-21.226-21.226-21.226H305.98c-16.279 0-31.395 8.258-40.401 21.857z" fill="#5d8de4"/><path d="M79.453 439.168v-75.443H48.058v105.222h106.838v-29.78H79.453z" fill="#9fbbf0"/><path d="M368.888 199.87c29.365 0 53.153-23.807 53.153-53.153 0-29.365-23.788-53.153-53.153-53.153s-53.153 23.788-53.153 53.153c0 29.346 23.788 53.153 53.153 53.153z" fill="#adc5f2"/><path d="M273.737 217.923L160.08 331.58l26.211 26.212L299.95 244.135l-26.212-26.212z" fill="#6c9aee"/><path d="M163.666 380.417l22.586-22.585-26.232-26.212-22.566 22.566 26.212 26.231z" fill="#88acef"/></g></svg>