<svg id="Layer_1" data-name="Layer 1" xmlns="http://www.w3.org/2000/svg" viewBox="0 0 666.78 195.77"><title>China Unicom logo - Brandlogos.net</title><path d="M454.33,423c-7.66-.16-10.13,4.14-10.13,4.14l-.36-3.73h-6.9v31.95h8V436c0-4.06,2.46-7.51,7-7.51,4.71,0,6.11,4.23,6.11,7.51v19.4h7.38V436.59c0-9.8-5.29-13.57-11-13.57" transform="translate(-50.61 -286.11)" style="fill:#231f20"/><path d="M385.61,447.5a20.93,20.93,0,0,1-17.56,8.82,20.65,20.65,0,0,1-14.84-6.07,20.31,20.31,0,0,1-6.15-14.93,20,20,0,0,1,7-15.58,20.4,20.4,0,0,1,14-5.54A23.26,23.26,0,0,1,378.85,417a22.62,22.62,0,0,1,6.8,6.11l-6.93,5a10.42,10.42,0,0,0-2-3.2,11.26,11.26,0,0,0-8.78-4,11.07,11.07,0,0,0-8.69,4.06,15.12,15.12,0,0,0-3.48,10.29,15.62,15.62,0,0,0,3.48,10.54,11,11,0,0,0,8.69,3.9,11.25,11.25,0,0,0,8.78-4,13.7,13.7,0,0,0,2-3.2c0,.08,5.09,3.77,6.9,5" transform="translate(-50.61 -286.11)" style="fill:#231f20"/><path d="M388.48,409.2h8.12v18a11.45,11.45,0,0,1,9.22-4.14c5.74,0,11.07,3.86,11.07,13.53v18.82h-7.42V436c0-3.33-1.32-7.46-6-7.46s-6.85,3.36-6.85,7.46v19.4h-8.12Z" transform="translate(-50.61 -286.11)" style="fill:#231f20"/><path d="M495.34,423.5v3.73a14.37,14.37,0,0,0-10.46-4.55,15,15,0,0,0-11.23,4.71,16.66,16.66,0,0,0-4.5,11.91,17.07,17.07,0,0,0,4.5,12.05,15.17,15.17,0,0,0,21.64.49v3.4h7.81V423.5Zm-2.18,23.21a9.48,9.48,0,0,1-13.6-.07,10.56,10.56,0,0,1-2.51-7.34,10.12,10.12,0,0,1,2.56-7.1,8.72,8.72,0,0,1,6.69-2.91,8.89,8.89,0,0,1,6.84,2.91,11.29,11.29,0,0,1,0,14.51" transform="translate(-50.61 -286.11)" style="fill:#231f20"/><path d="M426.57,420.11a4.17,4.17,0,0,1-4.3-4.26,4.25,4.25,0,0,1,4.39-4.3,4.11,4.11,0,0,1,4.39,4.3,4.19,4.19,0,0,1-4.39,4.26Z" transform="translate(-50.61 -286.11)" style="fill:#ec1b34"/><rect x="372.32" y="137.19" width="7.46" height="32.02" style="fill:#ec1b34"/><path d="M593.31,420.19A4.13,4.13,0,0,1,589,416a4.3,4.3,0,0,1,4.39-4.43,4.31,4.31,0,1,1,0,8.61Z" transform="translate(-50.61 -286.11)" style="fill:#ec1b34"/><path d="M707,423.18a13.48,13.48,0,0,0-10.83,5,9.63,9.63,0,0,0-8.32-5c-6.81-.16-9.64,4.14-9.64,4.14l-.32-3.81h-7.22v31.86h8.08V436.18c0-4.14,2.17-7.46,6.35-7.46s5.54,4.14,5.54,7.46v19.19H698v-18.7c.08-5.41,2.51-8,6.24-8,4.3,0,5.62,4.14,5.62,7.46v19.19h7.34V436.72c0-9.68-4.85-13.37-10.18-13.54" transform="translate(-50.61 -286.11)" style="fill:#231f20"/><rect x="539.05" y="137.39" width="7.46" height="31.86" style="fill:#ec1b34"/><path d="M633.17,449.18a14.89,14.89,0,0,1-5.37,4.8,16.25,16.25,0,0,1-8.57,2.25,16.55,16.55,0,0,1-11.81-4.88,15.87,15.87,0,0,1-4.92-11.77,16.07,16.07,0,0,1,5.58-12.43,16.48,16.48,0,0,1,11.15-4.3,17.09,17.09,0,0,1,8.48,2.26,15.82,15.82,0,0,1,5.37,4.75l-5.91,4.31a7.33,7.33,0,0,0-1.47-2.3,7.92,7.92,0,0,0-6.4-3,7.8,7.8,0,0,0-6.19,3,11.28,11.28,0,0,0-2.55,7.71,11.63,11.63,0,0,0,2.55,7.79,7.86,7.86,0,0,0,6.19,2.87,7.72,7.72,0,0,0,6.31-3,9.1,9.1,0,0,0,1.56-2.42Z" transform="translate(-50.61 -286.11)" style="fill:#231f20"/><path d="M531.3,455.82c7.63.12,10.13-4.14,10.13-4.14l.36,3.69h6.93V423.51h-8v19.35c0,4.1-2.3,7.51-6.85,7.51-4.76,0-6.6-4.23-6.6-7.51V423.51h-8.08v18.69c0,9.8,6.36,13.53,12.14,13.62" transform="translate(-50.61 -286.11)" style="fill:#231f20"/><path d="M572.56,423c-7.59-.08-10.13,4.23-10.13,4.23l-.33-3.73h-7v31.86h8V436.1c0-4.23,2.38-7.47,6.84-7.47,4.76,0,6.11,4.1,6.11,7.47v19.27h7.5v-18.7c0-9.76-5.29-13.49-11-13.65" transform="translate(-50.61 -286.11)" style="fill:#231f20"/><path d="M664.75,431a16.06,16.06,0,0,0-6.17-6,16.31,16.31,0,0,0-8.39-2.25,15.87,15.87,0,0,0-10.9,4.33,15.7,15.7,0,0,0-5.52,12.27,16,16,0,0,0,4.86,11.86A15.59,15.59,0,0,0,650.26,456a16.39,16.39,0,0,0,8.47-2.18,15.7,15.7,0,0,0,6-6.1,17.29,17.29,0,0,0,2.25-8.42,17,17,0,0,0-2.25-8.32m-7.6,16.53a7.87,7.87,0,0,1-6.4,3.07,8.15,8.15,0,0,1-6.4-3,13.19,13.19,0,0,1-2.44-8.21,11.82,11.82,0,0,1,2.58-8,7.5,7.5,0,0,1,6.26-3.12,8.13,8.13,0,0,1,6.52,3,13,13,0,0,1,2.56,8,12.18,12.18,0,0,1-2.68,8.11" transform="translate(-50.61 -286.11)" style="fill:#231f20"/><path d="M565.08,350.78h-9.56v-9.57h9.56Zm0,17.37-9.57,2.69V358.67h9.57Zm16.44-4.53-5.2,1.51V321.34c0-4.95-3-8-6.71-8H541.84v8h23.32v12.08H555.6v-8.14H545.11v48.58l-4.62,1.43v8.64l24.66-7V392.9h4.45c3.44,0,5.7-2.18,6.71-6.37V373.94l5.2-1.51Z" transform="translate(-50.61 -286.11)" style="fill:#231f20"/><path d="M608,356.74h13.68v-7.89H606.44V336.94h15.27v-7.8h-10l9-11.33-8.55-6.13-11.08,17.45H593l6.63-4.78a107.41,107.41,0,0,0-10.49-12.59L583,315.63,591,329.22H581V337h13.08v11.91H581v7.89H592.6L579,391.89h5.79a8.69,8.69,0,0,0,7.55-4.95l8.39-20.89L612.23,392h11.49Z" transform="translate(-50.61 -286.11)" style="fill:#231f20"/><path d="M416.09,357.42h0a5,5,0,0,1-5,5H395.45V330.56h20.64ZM421,322.68H395.37v-11H381.95v11H365.16v8h16.78v31.88H361.21V322.68H347.79v47.57H382V392.9h2.1c7.64-.34,11.08-3.69,11.32-9.32V370.25H418a11.52,11.52,0,0,0,11.41-11.08V330.73a8.54,8.54,0,0,0-8.47-8.05" transform="translate(-50.61 -286.11)" style="fill:#231f20"/><path d="M517.12,314.11H461.66v7.72h51.6v56.88a4.85,4.85,0,0,1-4.95,4.95H457.56V314.11H445.31v77.44h69.13a11.26,11.26,0,0,0,11.25-11.32V322.58a8.53,8.53,0,0,0-8.56-8.47" transform="translate(-50.61 -286.11)" style="fill:#231f20"/><path d="M509.15,368.22h-6l3.95-4.95a60.07,60.07,0,0,0-9.4-7.22l-4.61,4.62,6.71,7.55h-9.15V355.13h18.12v-7.89H490.69v-9.73h18.12v-7.8H462v7.8h16.36v9.73H462v7.89h16.36v13.09h-16.7V376h47.49Z" transform="translate(-50.61 -286.11)" style="fill:#231f20"/><path d="M657.65,384a5.14,5.14,0,0,1-5.12-5.12V338.39h-17.7v7.89h5.87V382a9.92,9.92,0,0,0,9.48,9.81h67.21V384Z" transform="translate(-50.61 -286.11)" style="fill:#231f20"/><path d="M705,346.53H692.55v-5.29H705Zm0,12.75H692.55V354H705ZM681.9,346.53H669.65v-5.29H681.9Zm0,12.75H669.65V354H681.9Zm27.86-25.76H697.34l16.44-9.81v-9H658.33v7.72h40.52l-13.25,7.89a76.59,76.59,0,0,0-10.74-5.88l-4.11,5.29,4.11,3.69H658.91v47h3.18c3.52,0,7.47-2.35,7.47-7.05v-6.45h12.25v13.51h3.44c4,0,7-2.18,7.21-7.13v-6.37h12.42v3.19c0,1.43-1.85,2.43-3.19,2.43h-4.79l2.1,8h7.72a9.42,9.42,0,0,0,9.48-9.49V340a6.52,6.52,0,0,0-6.46-6.46" transform="translate(-50.61 -286.11)" style="fill:#231f20"/><path d="M654,328.91a54.81,54.81,0,0,0-12.16-12.5l-6.21,4.45,10.48,14Z" transform="translate(-50.61 -286.11)" style="fill:#231f20"/><path d="M220.84,456.39a11.68,11.68,0,0,1-16.38,0c-4.42-4.37-8.26-8.21-8.26-8.21l12.39-12.44L193,420.12l-12.48,12.39L168.1,420.07l-15.57,15.61L165,448.13s-3.89,3.84-8.26,8.21a11.62,11.62,0,0,1-16.43-16.43c4.66-4.76,40.21-40.5,40.21-40.5s35.64,35.74,40.4,40.5a11.66,11.66,0,0,1-.05,16.47m-80.61-128.3a11.62,11.62,0,1,1,16.43-16.43l8.26,8.26-12.44,12.35L168,347.92l12.44-12.44,12.44,12.44,15.56-15.66L196.1,319.92s3.84-3.89,8.26-8.26a11.6,11.6,0,1,1,16.39,16.43c-4.76,4.76-40.4,40.5-40.4,40.5s-35.44-35.74-40.11-40.5m55.91,56s36.65-36.7,40.26-40.35A33.75,33.75,0,1,0,188.71,296c-5.14,5.28-8.16,8.26-8.16,8.26s-3-3-8.17-8.26a33.76,33.76,0,1,0-47.75,47.75L165,384s-36.7,36.56-40.35,40.26a33.76,33.76,0,0,0,47.75,47.75c5.19-5.28,8.17-8.36,8.17-8.36s3,3.08,8.16,8.36a33.75,33.75,0,0,0,47.7-47.75c-3.6-3.7-40.26-40.26-40.26-40.26m88.49,8.12a11.49,11.49,0,0,1-16.43,0C264.51,388.47,260,384,260,384s4.52-4.61,8.21-8.26A11.58,11.58,0,0,1,288,384a11.2,11.2,0,0,1-3.36,8.12m15.66-32a33.82,33.82,0,0,0-47.7,0c-3.71,3.8-8.22,8.21-8.22,8.21L231.94,356l-15.62,15.46L228.72,384l-12.4,12.34L231.94,412l12.39-12.39s4.51,4.47,8.21,8.22a33.73,33.73,0,0,0,47.75-47.66m-207.66,32A11.58,11.58,0,0,1,72.79,384a12,12,0,0,1,3.31-8.26,11.69,11.69,0,0,1,16.52,0L100.8,384s-4.56,4.42-8.17,8.12m36.13,19.89,15.75-15.61L132.07,384.1l12.44-12.54-15.75-15.47-12.39,12.3-8.22-8.21A33.72,33.72,0,0,0,50.61,384.1a33.72,33.72,0,0,0,57.54,23.83q4.14-4.09,8.22-8.22Z" transform="translate(-50.61 -286.11)" style="fill:#ec1b34"/></svg>