<?xml version="1.0" encoding="utf-8"?>
<!-- Generator: Adobe Illustrator 23.0.1, SVG Export Plug-In . SVG Version: 6.00 Build 0)  -->
<svg version="1.1" id="Livello_1" xmlns="http://www.w3.org/2000/svg" xmlns:xlink="http://www.w3.org/1999/xlink" x="0px" y="0px"
	 viewBox="0 0 1180.5 250" enable-background="new 0 0 1180.5 250" xml:space="preserve">
<path fill="#243882" d="M808.1,90.5c1.1-0.1,1.9-1,1.8-2.1c0,0,0,0,0,0c-0.1-1.1-1-1.9-2.1-1.8c-1.1,0.1-1.9,1-1.8,2.1l0,0
	C806.1,89.7,807.1,90.5,808.1,90.5 M684.4,27.4c0,3.1,2.5,5.7,5.7,5.7s5.7-2.5,5.7-5.7c0-3.1-2.5-5.7-5.7-5.7
	C687,21.7,684.4,24.3,684.4,27.4C684.4,27.4,684.4,27.4,684.4,27.4L684.4,27.4 M720.4,39.6c0,3.1,2.5,5.7,5.7,5.7
	c3.1,0,5.7-2.5,5.7-5.7c0-3.1-2.5-5.7-5.7-5.7l0,0l0,0C723,33.9,720.4,36.4,720.4,39.6C720.4,39.5,720.4,39.5,720.4,39.6L720.4,39.6
	 M585,187.7c0,3.1,2.5,5.7,5.7,5.7c3.1,0,5.7-2.5,5.7-5.7c0-3.1-2.5-5.7-5.7-5.7l0,0C587.6,182.1,585.1,184.6,585,187.7
	C585,187.7,585,187.7,585,187.7L585,187.7 M613,211.2c0,3.1,2.5,5.7,5.7,5.7c3.1,0,5.7-2.5,5.7-5.7c0-3.1-2.5-5.7-5.7-5.7l0,0l0,0
	C615.6,205.6,613,208.1,613,211.2 M648.6,222.2c0,3.1,2.5,5.7,5.7,5.7c3.1,0,5.7-2.5,5.7-5.7c0-3.1-2.5-5.7-5.7-5.7l0,0l0,0
	C651.2,216.5,648.7,219,648.6,222.2C648.6,222.2,648.6,222.2,648.6,222.2 M685.2,221.8c0.1,3.1,2.7,5.6,5.8,5.5
	c3.1-0.1,5.6-2.7,5.5-5.8c-0.1-3.1-2.6-5.5-5.6-5.5c-3.1,0-5.7,2.5-5.7,5.6C685.2,221.6,685.2,221.7,685.2,221.8L685.2,221.8
	 M720.4,210.6c0,3.1,2.6,5.7,5.8,5.6c3.1,0,5.7-2.6,5.6-5.8c0-3.1-2.5-5.6-5.6-5.6l0,0c-3.1,0-5.7,2.5-5.7,5.6
	C720.5,210.5,720.5,210.5,720.4,210.6 M748.4,188.1c0,3.1,2.5,5.7,5.7,5.7c3.1,0,5.7-2.5,5.7-5.7s-2.5-5.7-5.7-5.7l0,0l0,0
	C751,182.3,748.5,184.9,748.4,188.1C748.4,188,748.4,188,748.4,188.1 M748.1,62c0,3.1,2.6,5.6,5.7,5.6c3.1,0,5.6-2.6,5.6-5.7
	c0-3.1-2.5-5.6-5.7-5.6C750.6,56.3,748.1,58.9,748.1,62C748.1,62,748.1,62,748.1,62L748.1,62 M708.3,47c0-4-3.3-7.2-7.3-7.2
	c-4,0-7.2,3.3-7.2,7.3c0,4,3.2,7.2,7.2,7.2C705.1,54.3,708.3,51,708.3,47C708.3,47,708.3,47,708.3,47L708.3,47 M732.6,62
	c0-4-3.3-7.2-7.3-7.2s-7.2,3.3-7.2,7.3c0,4,3.2,7.2,7.2,7.2C729.4,69.2,732.6,66,732.6,62C732.6,62,732.6,62,732.6,62L732.6,62
	 M751.6,83.3c0-4-3.2-7.3-7.3-7.3c-4,0-7.3,3.2-7.3,7.3s3.2,7.3,7.3,7.3l0,0l0,0C748.3,90.6,751.5,87.4,751.6,83.3
	C751.6,83.4,751.6,83.4,751.6,83.3L751.6,83.3 M699.6,2.1c0.1-1.1-0.7-2-1.7-2.1c-1.1-0.1-2,0.7-2.1,1.8c-0.1,1.1,0.7,2,1.8,2.1
	C698.6,4,699.5,3.2,699.6,2.1C699.6,2.2,699.6,2.2,699.6,2.1L699.6,2.1 M748,19.7c0.1-1-0.7-2-1.7-2.1c0,0,0,0,0,0l0,0
	c-1.1,0-1.9,0.9-1.9,2c0,0.9,0.7,1.7,1.6,1.9C747,21.6,748,20.8,748,19.7 M786.1,47c0.1-1.1-0.7-2-1.8-2.1c0,0,0,0,0,0l0,0
	c-1-0.1-2,0.7-2.1,1.7c0,0,0,0,0,0l0,0c-0.2,1.1,0.5,2.1,1.5,2.3c1.1,0.2,2.1-0.5,2.3-1.6C786.1,47.2,786.1,47.1,786.1,47
	 M720.2,21.8c0.1-2-1.5-3.8-3.5-3.9c-2-0.1-3.8,1.5-3.9,3.5c-0.1,2,1.4,3.7,3.4,3.9c2,0.2,3.8-1.3,4-3.3
	C720.2,21.9,720.2,21.8,720.2,21.8L720.2,21.8 M757.2,40.2c0.2-2-1.3-3.8-3.3-4c0,0-0.1,0-0.1,0l0,0c-2-0.3-3.9,1-4.2,3
	c-0.3,2,1,3.9,3,4.2c0.1,0,0.2,0,0.3,0h0.3c2,0.2,3.8-1.3,3.9-3.3c0-0.1,0-0.1,0-0.2l0,0 M782.3,66.4c-2-0.1-3.8,1.5-3.9,3.5
	c-0.1,2,1.5,3.8,3.5,3.9c2,0.1,3.7-1.4,3.9-3.4c0.2-2-1.3-3.8-3.3-4C782.4,66.4,782.3,66.4,782.3,66.4L782.3,66.4 M672.2,11.6
	c-2.1,0-3.7,1.6-3.7,3.7c0,2.1,1.6,3.7,3.7,3.7c2.1,0,3.7-1.6,3.7-3.7l0,0C675.9,13.4,674.3,11.7,672.2,11.6
	C672.2,11.7,672.2,11.7,672.2,11.6 M654.3,21.8c-3.1,0-5.7,2.5-5.7,5.7c0,3.1,2.5,5.7,5.7,5.7c3.1,0,5.7-2.5,5.7-5.7l0,0
	C659.9,24.4,657.4,21.9,654.3,21.8L654.3,21.8L654.3,21.8 M618.3,33.9c-3.1,0-5.7,2.5-5.7,5.7c0,3.1,2.5,5.7,5.7,5.7
	c3.1,0,5.7-2.5,5.7-5.7l0,0C624,36.5,621.5,33.9,618.3,33.9 M565.7,119.5c-3.1,0-5.7,2.5-5.7,5.7c0,3.1,2.5,5.7,5.7,5.7
	c3.1,0,5.7-2.5,5.7-5.7l0,0C571.4,122.2,568.9,119.6,565.7,119.5L565.7,119.5L565.7,119.5 M572.7,86.2c-3.1,0-5.7,2.5-5.7,5.7
	c0,3.1,2.5,5.7,5.7,5.7c3.1,0,5.7-2.5,5.7-5.7l0,0c0.1-3.1-2.4-5.7-5.5-5.8l0,0 M591,56.3c-3.1,0-5.7,2.5-5.7,5.7
	c0,3.1,2.5,5.7,5.7,5.7c3.1,0,5.7-2.5,5.7-5.7l0,0C596.6,58.9,594.1,56.4,591,56.3 M672.2,214.9c4,0,7.3-3.2,7.3-7.2
	c0-4-3.2-7.3-7.2-7.3c-4,0-7.3,3.2-7.3,7.2l0,0C665,211.6,668.2,214.8,672.2,214.9 M672.2,50c4,0,7.3-3.2,7.3-7.2
	c0-4-3.2-7.3-7.2-7.3c-4,0-7.3,3.2-7.3,7.2l0,0C665,46.7,668.2,49.9,672.2,50 M643.4,54.2c4,0,7.3-3.2,7.3-7.2c0-4-3.2-7.3-7.2-7.3
	c-4,0-7.3,3.2-7.3,7.2l0,0C636.1,50.9,639.3,54.2,643.4,54.2C643.3,54.2,643.3,54.2,643.4,54.2L643.4,54.2 M619,69.1
	c4,0,7.3-3.2,7.3-7.2c0-4-3.2-7.3-7.2-7.3c-4,0-7.3,3.2-7.3,7.2l0,0C611.8,65.8,615,69.1,619,69.1C619,69.1,619,69.1,619,69.1
	L619,69.1 M599.8,90.6c4,0.2,7.4-2.9,7.6-6.9c0.2-4-2.9-7.4-6.9-7.6s-7.4,2.9-7.6,6.9c0,0,0,0.1,0,0.1l0,0c0,4,3.2,7.2,7.2,7.3
	c0,0,0,0,0,0l0,0 M592.2,117.4c4,0,7.3-3.2,7.3-7.2s-3.2-7.3-7.2-7.3c-4,0-7.3,3.2-7.3,7.2l0,0C585,114.1,588.2,117.3,592.2,117.4
	L592.2,117.4L592.2,117.4 M646.9,3.9c1.1-0.1,1.9-1,1.8-2.1c-0.1-1.1-1-1.9-2.1-1.8c-1.1,0.1-1.8,1-1.7,2.1c0,0,0,0,0,0.1
	C644.9,3.2,645.8,4,646.9,3.9C646.8,3.9,646.8,3.9,646.9,3.9L646.9,3.9 M598.5,21.5c1.1-0.1,1.8-1,1.8-2c0,0,0,0,0,0l0,0
	c-0.1-1.1-1-1.9-2.1-1.8c-1.1,0.1-1.8,1-1.8,2c0,0,0,0,0,0l0,0C596.5,20.8,597.4,21.5,598.5,21.5 M808.1,173.2
	c1.1,0,1.9-0.9,1.9-1.9c0-1.1-0.9-1.9-1.9-1.9h-0.4c-1.1,0.1-1.8,1-1.8,2c0,0,0,0,0,0l0,0c0.1,1.1,1,1.9,2.1,1.8 M784.8,205.4
	c1.1-0.1,1.8-1.1,1.8-2.1c-0.1-1.1-1-1.9-2.1-1.8c-1.1,0.1-1.9,1-1.8,2.1C782.8,204.7,783.7,205.5,784.8,205.4
	C784.8,205.4,784.8,205.4,784.8,205.4 M746.2,232.6c1.1-0.1,1.8-1,1.8-2c0,0,0,0,0,0l0,0c0-1.1-0.9-1.9-1.9-2c-1.1,0-1.9,0.9-2,1.9
	c0,0,0,0,0,0c0,0.1,0,0.3,0,0.4C744.2,232,745.1,232.8,746.2,232.6C746.2,232.7,746.2,232.7,746.2,232.6L746.2,232.6 M697.9,250
	c1.1-0.1,1.9-1,1.8-2.1c-0.1-1.1-1-1.9-2.1-1.8l0,0l0,0c-1.1,0.1-1.9,1-1.8,2.1C695.9,249.3,696.8,250.1,697.9,250 M646.9,250
	c1.1-0.1,1.9-1,1.8-2.1c-0.1-1.1-1-1.9-2.1-1.8l0,0l0,0c-1.1,0.1-1.9,1-1.8,2.1C644.9,249.3,645.8,250.1,646.9,250L646.9,250
	 M598.5,232.4c1.1-0.1,1.8-1,1.8-2c0,0,0,0,0,0l0,0c-0.1-1.1-1-1.9-2.1-1.8c-1.1,0.1-1.8,1-1.8,2c0,0,0,0,0,0l0,0
	C596.5,231.7,597.4,232.5,598.5,232.4 M560.3,205.1c1.1-0.1,1.9-1,1.8-2.1c0,0,0,0,0,0c-0.1-1.1-1-1.9-2.1-1.8
	c-1.1,0.1-1.9,1-1.8,2.1l0,0l0,0C558.3,204.4,559.2,205.2,560.3,205.1 M536.4,173.2c1.1,0,1.9-0.9,1.9-1.9c0-1.1-0.9-1.9-1.9-1.9
	H536c-1.1,0.2-1.7,1.2-1.5,2.3c0.2,0.9,0.9,1.6,1.9,1.6 M560.5,48.6c1.1-0.1,1.9-1,1.8-2.1c0,0,0,0,0,0c-0.1-1.1-1-1.9-2.1-1.8
	c-1.1,0.1-1.9,1-1.8,2.1l0,0l0,0C558.5,47.9,559.4,48.7,560.5,48.6 M628.1,24.9c2-0.3,3.4-2.1,3.2-4.1c-0.3-1.9-1.9-3.3-3.8-3.2
	c-2,0.3-3.4,2.1-3.1,4.1c0.3,1.8,1.8,3.2,3.6,3.2l0,0 M591,43.4c1.9-0.1,3.4-1.7,3.3-3.6c-0.1-1.9-1.7-3.4-3.6-3.3
	c-1.9,0.1-3.4,1.7-3.3,3.6c0.1,1.8,1.5,3.2,3.3,3.3H591 M558.5,70.3c0,1.9,1.6,3.5,3.5,3.5h0.5c2,0,3.7-1.7,3.6-3.7
	c0-2-1.7-3.7-3.7-3.6c-0.1,0-0.3,0-0.4,0C559.9,66.6,558.3,68.3,558.5,70.3 M796.8,140.3c-2,0.2-3.5,2-3.4,4c0.2,2,2,3.5,4,3.4l0,0
	c2-0.2,3.5-2,3.4-4C800.6,141.6,798.8,140.1,796.8,140.3L796.8,140.3L796.8,140.3 M782.5,176c-2,0.3-3.4,2.1-3.2,4.1
	c0.2,1.9,1.9,3.3,3.8,3.2c2-0.3,3.4-2.1,3.1-4.1c-0.3-1.8-1.8-3.2-3.6-3.2l0,0 M754.1,206.4c-2,0-3.7,1.7-3.6,3.7
	c0,2,1.7,3.7,3.7,3.6c0.1,0,0.3,0,0.4,0c2-0.1,3.6-1.8,3.5-3.9c0-1.9-1.6-3.5-3.5-3.5H754.1 M716.3,224.9c-2,0.1-3.6,1.8-3.5,3.9
	l0,0c0.1,2,1.8,3.6,3.8,3.5c2-0.1,3.6-1.8,3.5-3.8l0,0c0,0,0-0.2,0-0.3c-0.1-2-1.8-3.6-3.8-3.5c0,0,0,0,0,0l0,0 M671.8,230.9
	c-2,0.1-3.6,1.8-3.5,3.8c0.1,2,1.8,3.6,3.8,3.5h0.3c2-0.3,3.4-2.1,3.2-4.1C675.3,232.2,673.7,230.9,671.8,230.9 M629.1,226
	c-2,0.2-3.5,2-3.3,4c0.2,2,2,3.5,4,3.3c2-0.2,3.5-1.9,3.4-3.9c-0.1-2-1.8-3.6-3.9-3.5C629.2,226,629.2,226,629.1,226L629.1,226
	 M590.6,206.6c-2,0.1-3.6,1.8-3.5,3.8c0.1,2,1.8,3.6,3.8,3.5l0,0h0.3c2-0.3,3.4-2.1,3.2-4.1C594.1,207.9,592.5,206.5,590.6,206.6
	 M561.9,176.2c-2,0.3-3.4,2.1-3.2,4.1c0.2,1.9,1.9,3.3,3.8,3.2c2-0.3,3.4-2.1,3.1-4.1c-0.3-1.8-1.8-3.2-3.6-3.2l0,0 M546.1,105.7
	c-2,0.3-3.4,2.1-3.2,4.1c0.2,1.9,1.9,3.3,3.8,3.2c2-0.3,3.4-2.1,3.1-4.1c-0.3-1.8-1.8-3.2-3.6-3.2l0,0 M650.9,202.9
	c0-4-3.2-7.2-7.2-7.2c-4,0-7.2,3.2-7.2,7.2c0,4,3.2,7.2,7.2,7.2l0,0C647.6,210.1,650.9,206.9,650.9,202.9L650.9,202.9L650.9,202.9
	 M700.7,195.6c-4,0-7.3,3.2-7.3,7.2c0,4,3.2,7.3,7.2,7.3c4,0,7.3-3.2,7.3-7.2l0,0C708,198.9,704.8,195.7,700.7,195.6
	C700.8,195.7,700.8,195.7,700.7,195.6L700.7,195.6 M725.5,181.3c-4-0.1-7.3,3.1-7.4,7.1c-0.1,4,3.1,7.3,7.1,7.4
	c4,0.1,7.3-3.1,7.4-7.1c0,0,0-0.1,0-0.1c0.1-4-3.2-7.3-7.2-7.4c-0.1,0-0.1,0-0.2,0 M751.5,166.7c0-4-3.3-7.2-7.3-7.2
	c-4,0-7.2,3.3-7.2,7.3c0,4,3.2,7.2,7.2,7.2C748.2,173.9,751.5,170.7,751.5,166.7C751.5,166.7,751.5,166.7,751.5,166.7L751.5,166.7
	 M619.2,180.9c-4,0-7.3,3.2-7.3,7.2c0,4,3.2,7.3,7.2,7.3c4,0,7.3-3.2,7.3-7.2l0,0C626.4,184.2,623.2,181,619.2,180.9
	C619.2,180.9,619.2,180.9,619.2,180.9L619.2,180.9 M600.1,159.5c-4,0-7.3,3.2-7.3,7.2c0,4,3.2,7.3,7.2,7.3c4,0,7.3-3.2,7.3-7.2
	c0,0,0-0.1,0-0.1l0,0C607.3,162.7,604,159.4,600.1,159.5L600.1,159.5L600.1,159.5 M890,97.2h44.8v59.7h15.7V97.2h40.8l3.8-10.4
	H893.8L890,97.2z M527.1,86.8h-15.7v70.1h71.7l3.9-10.4h-59.9V86.8z M673.3,86.8l37.9,69.4h16.8L690.1,87L673.3,86.8z M616,156.2
	h16.8L670.7,87h-16.8L616,156.2z M842.1,138.9l-66-51.8h-15.8v69.2h15.7v-52.1l66,52.1h15.7V87h-15.7L842.1,138.9z M1160,116.4
	h-48.2c-4.8,0.4-9.1-3.1-9.5-7.9c0,0,0,0,0,0c0-0.3,0-0.5,0-0.8v-1.9c0.1-4.8,4-8.5,8.7-8.5c0,0,0,0,0.1,0h65.6l3.8-10.4H1107
	c-13.2,0-20,8.9-20.1,17.8v4.6c0,9,6.9,18.3,20.5,18.3h48.2c4.8-0.4,9.1,3.1,9.5,7.9c0,0,0,0,0,0c0,0.2,0,0.4,0,0.7v1.9
	c-0.1,4.8-4,8.6-8.8,8.5c0,0,0,0,0,0h-65.6l-3.8,10.4h73.5c13.2,0,20-8.9,20.1-17.8v-4.6c0-9-6.9-18.3-20.5-18.3 M73.2,116.3H24.9
	c-4.8,0.4-9.1-3.1-9.5-7.9c0,0,0,0,0,0c0-0.2,0-0.4,0-0.7v-1.9c0.1-4.8,4-8.5,8.7-8.5c0,0,0,0,0,0h65.7l4-10.4H20.1
	c-13.2,0.3-20,9.1-20.1,18v4.6c0,9,6.9,18.3,20.5,18.3h48.2c4.8-0.4,9.1,3.1,9.5,7.9c0,0,0,0,0,0c0,0.2,0,0.4,0,0.7v1.9
	c-0.1,4.8-4,8.6-8.8,8.5c0,0,0,0,0,0H3.8L0,157.1h73.5c13.2,0,20-8.9,20.1-17.8v-4.8c0-9-6.9-18.3-20.5-18.3 M1028.3,156.2h15.7V87
	h-15.7V156.2z M127.9,97.2h44.7v59.7h15.7V97.2h40.8l3.8-10.4H131.7L127.9,97.2z M343.1,97.2l3.8-10.4h-79.6v70.1h75.9l3.8-10.4
	h-63.9v-19.7h44.7l3.8-10.2H283V97.2H343.1z M410,146.6h59.9L466,157h-71.7V87H410V146.6z"/>
</svg>
