<?xml version="1.0" encoding="utf-8"?>
<!-- Generator: Adobe Illustrator 19.2.1, SVG Export Plug-In . SVG Version: 6.00 Build 0)  -->
<svg version="1.1" id="layer" xmlns="http://www.w3.org/2000/svg" xmlns:xlink="http://www.w3.org/1999/xlink" x="0px" y="0px"
	 viewBox="20 255 620 140" xml:space="preserve">
<style type="text/css">
	.st0{fill:url(#SVGID_1_);}
	.st1{fill:#EC008C;}
</style>
<linearGradient id="SVGID_1_" gradientUnits="userSpaceOnUse" x1="29.4636" y1="1133.6801" x2="202.5831" y2="1133.6801" gradientTransform="matrix(1 0 0 1 -5.21 -808.55)">
	<stop  offset="2.000000e-002" style="stop-color:#FDB515"/>
	<stop  offset="0.1" style="stop-color:#FCA91D"/>
	<stop  offset="0.26" style="stop-color:#F98932"/>
	<stop  offset="0.47" style="stop-color:#F45454"/>
	<stop  offset="0.73" style="stop-color:#ED0D83"/>
	<stop  offset="0.77" style="stop-color:#EC008C"/>
</linearGradient>
<path class="st0" d="M117.7,259.8H41.1l7.6,26.1h69.1c7.2,0,13.1,5.9,13.1,13.1v13.1H65.5c-21.6,0-39.2,17.5-39.2,39.2
	c0,21.6,17.5,39.2,39.2,39.2h52.2c21.6,0,39.2-17.6,39.1-39.2c0,0,0-0.1,0-0.1V299C156.8,277.4,139.3,259.9,117.7,259.8z M130.7,351
	c0,7.2-5.8,13.1-13,13.1H65.5c-7.2-0.4-12.7-6.7-12.2-13.9c0.4-6.6,5.7-11.8,12.2-12.2h65.2V351z"/>
<polygon class="st1" points="194.2,312.1 170.4,312.1 170.4,338.2 201.7,338.2 "/>
<path fill="#171717" d="M289.4,351.4H278v-6.3c-3.9,5-10,7.9-16.4,7.7c-14.5,0-26.2-11.8-26.2-26.3c0-0.4,0-0.8,0-1.2c-0.7-14.5,10.5-26.8,25-27.5
	c0.4,0,0.8,0,1.2,0c6.4-0.2,12.5,2.7,16.4,7.7v-6.4h11.4L289.4,351.4z M247.2,325.3c-0.7,8.7,5.8,16.3,14.5,17s16.3-5.8,17-14.5
	c0.1-0.8,0.1-1.7,0-2.5c0.7-8.7-5.8-16.3-14.5-17c-8.7-0.7-16.3,5.8-17,14.5C247.1,323.6,247.1,324.4,247.2,325.3z"/>
<path fill="#171717" d="M387.7,318.6v32.9h-11.4v-29.1c0-8.8-4.5-13.7-12.2-13.7c-7.1-0.3-13.2,5.2-13.5,12.3c0,0.5,0,1,0,1.5v29h-11.5v-29.1
	c0-8.8-4.5-13.7-12.2-13.7c-7.2-0.3-13.2,5.2-13.5,12.4c0,0.5,0,1,0,1.4v29h-11.4v-52.3h11.3v6.4c3.7-5.2,9.7-8.1,16.1-7.8
	c7.2-0.3,14.1,3.3,18.1,9.3c4.2-6.3,11.5-9.9,19.1-9.3c11.1-0.6,20.6,7.9,21.2,19C387.7,317.3,387.7,318,387.7,318.6z"/>
<path fill="#171717" d="M518.1,325.3c0.4,15.5-12,28.4-27.5,28.8c-15.5,0.4-28.4-12-28.8-27.5c-0.4-15.5,12-28.4,27.5-28.8c0.2,0,0.4,0,0.6,0
	c15-0.6,27.6,11.2,28.1,26.1C518.1,324.4,518.1,324.8,518.1,325.3z M473.3,325.3c0,9.1,7.3,16.4,16.4,16.4c9.1,0,16.4-7.3,16.4-16.4
	c0,0,0,0,0,0c0-9.1-7.3-16.4-16.4-16.4C480.7,308.9,473.3,316.2,473.3,325.3C473.3,325.3,473.3,325.3,473.3,325.3z"/>
<path fill="#171717" d="M573.2,306.3l-7.3,7.8c-3.3-3.4-7.8-5.4-12.5-5.4c-8.6,0.1-15.6,7.1-15.5,15.7c0,0.3,0,0.7,0,1c-0.6,8.6,5.8,16.1,14.4,16.7
	c0.3,0,0.7,0,1,0c4.8-0.1,9.4-2.1,12.8-5.5l7.1,7.9c-5,5.5-12.1,8.6-19.5,8.4c-14.5,0.6-26.9-10.6-27.5-25.2c0-0.8,0-1.6,0-2.3
	c-0.6-14.5,10.6-26.9,25.2-27.5c0.8,0,1.6,0,2.3,0C561.1,297.7,568.2,300.7,573.2,306.3z"/>
<path fill="#171717" d="M620.3,312.2c-4.9-2.8-10.5-4.4-16.2-4.5c-6.2,0-9.9,2.5-9.9,6.2s3.8,4.7,8.6,5.4l5.4,0.8c11.4,1.6,18.2,6.5,18.2,15.5
	c0,9.9-8.8,17.1-23.8,17.1c-7.9,0.2-15.8-2.2-22.3-6.6l5.3-8.6c4.9,3.8,11.1,5.7,17.3,5.4c7.8,0,11.9-2.4,11.9-6.4
	c0-2.9-2.8-5-9.1-5.8l-5.5-0.7c-11.6-1.6-17.8-7-17.8-15.4c0-10.4,8.3-16.8,21.6-16.8c7.4-0.2,14.8,1.7,21.2,5.5L620.3,312.2z"/>
<path fill="#171717" d="M440,305.4v-19l11.4-4v69.1H440v-6.3c-3.9,5.1-10.1,7.9-16.5,7.7c-14.5,0-26.2-11.8-26.2-26.3c0-0.4,0-0.8,0-1.2
	c-0.7-14.5,10.5-26.8,25-27.5c0.4,0,0.8,0,1.2,0C430,297.5,436.1,300.4,440,305.4z M409.2,325.3c-0.5,8.7,6.2,16.2,14.9,16.7
	c8.7,0.5,16.2-6.2,16.7-14.9c0-0.6,0-1.2,0-1.8c0.5-8.7-6.2-16.2-14.9-16.7c-8.7-0.5-16.2,6.2-16.7,14.9
	C409.2,324.1,409.2,324.7,409.2,325.3z"/>
</svg>
