<svg width="1000" height="1000" viewBox="0 0 1000 1000" fill="none" xmlns="http://www.w3.org/2000/svg">
<rect width="1000" height="1000" fill="#FE42B4"/>
<path d="M681.289 715.911H602.273V488.636H545.455V409.091H681.289V715.911ZM511.364 357.889H462.968C456.39 357.927 450.61 359.891 445.594 363.403C440.578 366.915 436.58 371.938 434.253 377.678C432.69 381.53 431.818 385.685 431.818 390.254V409.091H511.364V488.636H431.818V715.909H352.273V488.636H295.455V409.091H352.273V390.254C352.237 366.047 359.434 343.198 371.61 324.504C383.786 305.773 400.978 290.93 421.333 281.98C434.89 276.013 449.866 272.727 465.386 272.727H511.364V357.889ZM642.331 261.364C671.899 261.364 693.182 283.741 693.182 312.189C693.182 340.637 671.329 363.636 642.331 363.636C613.332 363.636 590.909 341.259 590.909 312.189C590.909 283.741 612.762 261.364 642.331 261.364Z" fill="white"/>
</svg>
