<?xml version="1.0" standalone="no"?>
<svg version="1.0" xmlns="http://www.w3.org/2000/svg"
 viewBox="0 0 1024.000000 273.000000"
 preserveAspectRatio="xMidYMid meet">

<g transform="translate(0.000000,273.000000) scale(0.100000,-0.100000)"
stroke="none">

<!-- Top row: blue, space, blue -->
<g fill="#4A90C4">
<path d="M845 2077 c-43 -20 -93 -80 -101 -122 -16 -88 19 -175 84 -209 70
-36 155 -28 212 20 91 77 83 225 -16 294 -43 29 -133 38 -179 17z"/>
<path d="M1970 2079 c-32 -13 -78 -56 -96 -92 -20 -38 -20 -117 1 -161 58
-123 228 -139 311 -30 29 37 43 117 30 168 -9 36 -65 96 -103 112 -37 16 -107
17 -143 3z"/>
</g>

<!-- Middle row: white, blue, white -->
<path fill="#171717" d="M856 1545 c-152 -54 -168 -274 -24 -344 123 -59 261 13 276 144 10
89 -51 181 -135 204 -49 14 -69 13 -117 -4z"/>
<path fill="#4A90C4" d="M1405 1536 c-37 -16 -92 -77 -101 -112 -4 -14 -4 -49 -2 -79 12 -149
188 -215 303 -114 55 49 75 151 42 215 -20 38 -65 80 -100 93 -38 15 -105 13
-142 -3z"/>
<path fill="#171717" d="M1977 1545 c-148 -52 -170 -253 -39 -336 159 -101 351 65 273 236
-22 50 -69 91 -119 105 -48 13 -68 12 -115 -5z"/>

<!-- Bottom row: white, space, white -->
<g fill="#171717">
<path d="M856 1005 c-152 -54 -168 -274 -24 -344 123 -59 261 13 276 144 10
89 -51 181 -135 204 -49 14 -69 13 -117 -4z"/>
<path d="M1977 1005 c-148 -52 -170 -253 -39 -336 159 -101 351 65 273 236
-22 50 -69 91 -119 105 -48 13 -68 12 -115 -5z"/>
</g>

<!-- "Hu" text (white) -->
<g fill="#171717">
<path d="M2950 1886 l0 -64 75 -7 75 -7 0 -458 0 -458 -22 -6 c-13 -3 -40 -6
-60 -6 -63 0 -68 -5 -68 -76 l0 -64 238 2 237 3 3 59 c4 68 -3 76 -65 76 -23
0 -53 4 -68 10 l-25 10 2 177 3 178 308 3 307 2 0 -184 0 -183 -31 -7 c-17 -3
-48 -6 -68 -6 -56 0 -62 -9 -59 -76 l3 -59 238 -3 238 -2 -3 67 c-3 68 -3 68
-33 71 -16 1 -49 5 -72 8 l-43 5 0 460 0 459 29 0 c15 0 49 3 75 6 l46 7 0 64
0 63 -237 -2 -238 -3 0 -60 0 -60 75 -10 75 -10 0 -195 0 -195 -305 0 -305 0
0 195 0 195 78 9 77 8 0 64 0 64 -240 0 -240 0 0 -64z"/>
<path d="M4214 1566 c-3 -7 -4 -35 -2 -62 l3 -49 58 -9 57 -9 0 -202 c0 -228
10 -294 54 -367 40 -65 94 -103 176 -124 115 -29 231 -8 312 56 20 17 39 30
42 30 3 0 6 -19 8 -42 l3 -43 128 -3 127 -3 0 65 c0 69 -5 76 -60 76 -64 0
-60 -21 -60 356 l0 344 -140 0 -140 0 0 -64 0 -65 55 -6 55 -7 0 -213 0 -212
-31 -42 c-77 -108 -268 -115 -331 -12 -22 35 -23 45 -26 329 l-3 292 -140 0
c-109 0 -141 -3 -145 -14z"/>
</g>

<!-- "mach" text (blue) -->
<g fill="#4A90C4">
<path d="M5691 1575 c-57 -16 -110 -45 -131 -70 -21 -26 -30 -17 -30 30 l0 45
-125 0 -126 0 3 -62 3 -63 45 -5 c25 -3 51 -9 58 -13 9 -6 12 -71 12 -270 0
-144 -4 -267 -8 -273 -4 -6 -31 -15 -59 -19 l-53 -7 0 -59 0 -59 195 0 195 0
0 58 0 59 -57 9 -58 9 0 212 0 211 30 43 c76 108 260 127 333 34 34 -43 42
-114 42 -380 l0 -255 135 0 135 0 0 59 0 59 -57 8 -58 9 -3 229 -2 230 31 32
c46 47 93 66 163 67 90 1 150 -37 175 -112 7 -22 11 -130 11 -307 l0 -274 140
0 140 0 0 59 0 59 -59 7 -59 7 -4 236 c-5 268 -11 299 -78 375 -58 66 -123 91
-235 92 -111 0 -176 -21 -235 -75 l-42 -39 -35 36 c-20 19 -56 44 -82 55 -62
27 -179 33 -250 13z"/>
<path d="M7053 1580 c-64 -22 -98 -46 -148 -101 -112 -125 -138 -346 -59 -514
38 -81 87 -130 171 -172 68 -34 84 -37 157 -38 106 0 141 8 211 51 54 32 60
33 68 17 33 -58 114 -86 188 -64 l39 12 0 64 0 64 -42 -2 -43 -2 -3 348 -2
347 -65 0 -64 0 -7 -35 c-7 -40 -16 -43 -51 -15 -76 59 -243 79 -350 40z m252
-136 c27 -10 65 -34 86 -55 l39 -39 0 -179 0 -179 -39 -35 c-49 -44 -100 -61
-181 -61 -117 0 -210 73 -241 189 -17 61 -7 192 18 240 61 116 187 163 318
119z"/>
<path d="M8040 1579 c-123 -24 -231 -118 -272 -236 -32 -93 -32 -261 -1 -345
64 -173 195 -258 397 -258 130 0 253 38 307 96 l20 22 -31 62 -32 62 -31 -30
c-46 -43 -101 -63 -192 -69 -139 -9 -221 31 -271 132 -52 108 -42 279 22 355
54 63 157 91 258 70 99 -20 140 -73 138 -177 l-1 -63 55 0 c85 0 94 8 94 89 0
87 -22 150 -69 199 -83 85 -236 121 -391 91z"/>
<path d="M8560 1985 c0 -61 -1 -60 73 -70 l47 -6 0 -514 0 -513 -60 -7 -60 -7
0 -59 0 -59 195 0 195 0 0 59 0 60 -56 6 -55 7 3 218 3 218 31 39 c47 58 104
85 178 86 84 1 133 -24 164 -83 21 -43 22 -53 22 -327 l0 -283 140 0 140 0 0
58 0 59 -57 9 -58 9 -5 240 c-5 223 -7 243 -28 290 -30 66 -83 118 -146 147
-74 32 -219 32 -293 -1 -29 -13 -58 -29 -64 -37 -6 -8 -15 -14 -20 -14 -5 0
-9 119 -9 265 l0 265 -140 0 -140 0 0 -55z"/>
</g>

<!-- TM symbol -->
<g fill="#4A90C4">
<path d="M9603 868 c9 -8 18 -32 20 -58 l4 -45 1 46 c2 37 6 48 25 57 19 9 17
11 -22 11 -38 1 -42 -1 -28 -11z"/>
<path d="M9702 823 c1 -43 2 -48 5 -20 5 41 17 47 33 17 11 -21 11 -21 30 2
l19 23 1 -32 c0 -17 5 -35 10 -38 6 -4 10 13 10 44 0 59 -11 71 -34 36 -21
-31 -29 -31 -46 0 -21 40 -30 29 -28 -32z"/>
</g>

</g>
</svg>