<?xml version="1.0" encoding="UTF-8" standalone="no"?>
<svg id="svg3336" xmlns:rdf="http://www.w3.org/1999/02/22-rdf-syntax-ns#" xmlns="http://www.w3.org/2000/svg" xml:space="preserve" version="1.1" xmlns:cc="http://creativecommons.org/ns#" viewBox="0 0 503.99998 80.399238" xmlns:dc="http://purl.org/dc/elements/1.1/"><metadata id="metadata3342"><rdf:RDF><cc:Work rdf:about=""><dc:format>image/svg+xml</dc:format><dc:type rdf:resource="http://purl.org/dc/dcmitype/StillImage"/><dc:title/></cc:Work></rdf:RDF></metadata><defs id="defs3340"><clipPath id="clipPath3536" clipPathUnits="userSpaceOnUse"><path id="path3538" d="m283.61 700.16h166.16v-25.242h-166.16v25.242z"/></clipPath><clipPath id="clipPath3560" clipPathUnits="userSpaceOnUse"><path id="path3562" d="m283.61 700.16h166.16v-25.242h-166.16v25.242z"/></clipPath><clipPath id="clipPath3580" clipPathUnits="userSpaceOnUse"><path id="path3582" d="m283.61 700.16h166.16v-25.242h-166.16v25.242z"/></clipPath></defs><g id="g3344" fill="#0056A8" transform="matrix(1.25 0 0 -1.25 -352.51 1003.9)"><g id="g3532" transform="matrix(2.4328 0 0 2.4328 -406.36 -901.55)"><g id="g3534" fill="#0056A8" clip-path="url(#clipPath3536)"><g id="g3540" fill="#0056A8" transform="translate(446.22 677.78)"><path id="path3542" d="m0 0c-1.324-1.392-2.825-2.222-4.708-2.601-1.271-0.257-2.384-0.311-3.676-0.177-1.712 0.176-3.125 0.726-4.503 1.757-1.127 0.84-1.934 1.749-2.639 2.967-0.544 0.943-0.861 1.825-1.037 2.899-0.247 1.49-0.182 2.801 0.21 4.258 0.896 3.314 3.389 5.663 6.749 6.362 1.919 0.399 3.625 0.358 5.522-0.132 1.351-0.349 2.424-0.937 3.446-1.888 0.645-0.598 1.103-1.199 1.509-1.977 0.481-0.92 0.675-1.814 0.62-2.85h-5.993c-0.13 0.803-0.515 1.443-1.162 1.935-0.838 0.639-1.919 0.69-2.815 0.136-0.612-0.381-1.014-0.899-1.231-1.586-0.516-1.637-0.539-3.16-0.079-4.813 0.196-0.695 0.525-1.24 1.051-1.736 0.599-0.572 1.346-0.807 2.166-0.686 0.508 0.074 0.921 0.296 1.263 0.681 0.359 0.397 0.564 0.823 0.658 1.35 0.066 0.371 0.103 0.685 0.123 1.061h6.318c0.126-1.905-0.478-3.578-1.792-4.96" fill="#0056A8"/></g></g></g><path id="path3544" d="m620.44 790.25h15.945v11.264h-15.945v-11.264z"/><path id="path3546" d="m620.44 741.82h15.945v42.64h-15.945v-42.64z"/><g id="g3548" transform="matrix(2.4328 0 0 2.4328 587.41 779.96)"><path id="path3550" d="m0 0c0.862 0.754 1.684 1.286 2.724 1.767 1.693 0.782 3.386 0.909 5.177 0.386 1.921-0.563 3.305-1.914 3.911-3.823 0.291-0.917 0.417-1.731 0.417-2.693v-11.312h-6.961v10.173c0 0.34-0.041 0.628-0.143 0.954-0.178 0.584-0.564 1.014-1.128 1.252-1.234 0.524-2.637 0.06-3.314-1.096-0.283-0.482-0.412-0.957-0.412-1.517v-9.766h-6.742v17.528h6.325l0.146-1.853" fill="#0056A8"/></g><g id="g3552" transform="matrix(2.4328 0 0 2.4328 398.82 779.96)"><path id="path3554" d="m0 0c0.862 0.754 1.684 1.286 2.722 1.767 1.694 0.782 3.388 0.909 5.178 0.386 1.922-0.563 3.306-1.914 3.912-3.823 0.291-0.917 0.417-1.731 0.417-2.693v-11.312h-6.961v10.173c0 0.34-0.043 0.628-0.142 0.954-0.18 0.584-0.566 1.014-1.131 1.252-1.233 0.524-2.636 0.06-3.312-1.096-0.284-0.482-0.413-0.957-0.413-1.517v-9.766h-6.741v17.528h6.324l0.147-1.853" fill="#0056A8"/></g><g id="g3556" transform="matrix(2.4328 0 0 2.4328 -406.36 -901.55)"><g id="g3558" fill="#0056A8" clip-path="url(#clipPath3560)"><g id="g3564" fill="#0056A8" transform="translate(372.28 681.95)"><path id="path3566" d="m0 0c0.502-0.085 0.922-0.19 1.404-0.351 0.403-0.132 0.68-0.444 0.768-0.857 0.096-0.451-0.031-0.879-0.355-1.204-0.329-0.333-0.704-0.525-1.166-0.597-0.618-0.099-1.166-0.048-1.755 0.166-0.285 0.102-0.511 0.231-0.745 0.424-0.301 0.254-0.495 0.545-0.612 0.921-0.098 0.319-0.137 0.601-0.131 0.935h-6.419v-0.374c0-0.604 0.094-1.116 0.306-1.681 0.322-0.85 0.763-1.507 1.429-2.127 0.869-0.813 1.776-1.32 2.919-1.647 2.373-0.676 4.51-0.81 6.949-0.436 1.144 0.175 2.088 0.483 3.117 1.016 0.453 0.235 0.816 0.478 1.207 0.806 1.734 1.456 2.377 3.678 1.684 5.833-0.262 0.812-0.676 1.438-1.321 1.998-0.884 0.766-1.779 1.254-2.903 1.582-0.246 0.071-0.456 0.131-0.704 0.199-1.375 0.382-2.556 0.634-3.968 0.844-0.378 0.056-0.696 0.117-1.069 0.204-0.172 0.041-0.315 0.089-0.475 0.162-0.395 0.178-0.57 0.643-0.392 1.037 0.01 0.021 0.019 0.04 0.03 0.06 0.212 0.379 0.526 0.626 0.94 0.747 0.733 0.212 1.408 0.194 2.127-0.051 0.69-0.235 1.123-0.868 1.093-1.597h6.185c-0.006 0.76-0.122 1.402-0.378 2.116-0.262 0.724-0.66 1.275-1.265 1.752-0.526 0.418-1.025 0.702-1.652 0.945-0.61 0.237-1.148 0.385-1.793 0.498-1.533 0.264-2.852 0.341-4.404 0.249-0.887-0.051-1.635-0.161-2.503-0.364-1.168-0.275-2.109-0.726-3.053-1.466-0.802-0.629-1.327-1.364-1.663-2.326-0.153-0.436-0.226-0.823-0.246-1.282-0.035-0.769 0.076-1.424 0.361-2.139 0.51-1.28 1.416-2.187 2.698-2.698 0.649-0.259 1.218-0.429 1.903-0.569 1.35-0.279 2.493-0.496 3.852-0.728" fill="#0056A8"/></g></g></g><g id="g3568" transform="matrix(2.4328 0 0 2.4328 312.66 760.21)"><path id="path3570" d="m0 0h-4.498v5.751h2.923c0.555 0 1.025 0.013 1.58 0.044 0.769 0.042 1.408 0.386 1.866 1.005 0.243 0.329 0.38 0.661 0.438 1.067 0.048 0.342 0.055 0.634 0.021 0.976-0.125 1.28-1.185 2.24-2.47 2.24h-4.358v-18.641h-7.446v24.538h12.171c0.484 0 0.893-0.009 1.376-0.036 3.229-0.173 5.889-1.966 7.257-4.896 0.712-1.525 0.954-2.991 0.771-4.665-0.386-3.524-2.851-6.265-6.314-7.024-1.148-0.252-2.142-0.359-3.317-0.359" fill="#0056A8"/></g><g id="g3572" transform="matrix(2.4328 0 0 2.4328 550.47 785.28)"><path id="path3574" d="m0 0c-0.693 0.11-1.285 0.155-1.986 0.155-0.702 0-1.293-0.045-1.987-0.155-2.012-0.315-3.642-1.124-5.111-2.534-1.572-1.511-2.433-3.299-2.63-5.47-0.12-1.333-0.017-2.482 0.342-3.771 0.55-1.978 1.583-3.506 3.213-4.754 1.073-0.825 2.14-1.319 3.462-1.607 0.939-0.206 1.75-0.291 2.711-0.291 0.96 0 1.772 0.085 2.712 0.291 1.321 0.288 2.388 0.782 3.461 1.607l-3.766 4.104c-0.599-1.33-2.159-1.923-3.49-1.324-0.613 0.276-1.048 0.71-1.325 1.324-0.255 0.567-0.404 1.075-0.496 1.691-0.186 1.231-0.165 2.3 0.076 3.523 0.123 0.635 0.335 1.153 0.689 1.694 0.774 1.181 2.358 1.511 3.541 0.738 0.309-0.203 0.535-0.429 0.736-0.738 0.355-0.541 0.567-1.059 0.69-1.694 0.238-1.223 0.262-2.292 0.076-3.523-0.093-0.616-0.242-1.124-0.497-1.691l3.766-4.104c1.631 1.248 2.664 2.776 3.213 4.754 0.359 1.289 0.461 2.438 0.342 3.771-0.197 2.171-1.056 3.959-2.629 5.47-1.47 1.412-3.099 2.219-5.113 2.534" fill="#0056A8"/></g><g id="g3576" transform="matrix(2.4328 0 0 2.4328 -406.36 -901.55)"><g id="g3578" fill="#0056A8" clip-path="url(#clipPath3580)"><g id="g3584" transform="translate(362.55 676.88)"><path id="path3586" d="m0 0c-0.098 1.444-0.153 2.667-0.182 4.116-0.038 1.904-0.061 3.51-0.074 5.413-0.008 1.027-0.121 1.894-0.378 2.888-0.337 1.303-1.1 2.293-2.275 2.951-0.71 0.397-1.361 0.641-2.155 0.813-2.528 0.541-4.759 0.586-7.306 0.144-0.716-0.124-1.308-0.296-1.98-0.574-1.552-0.642-2.621-1.812-3.119-3.415-0.191-0.613-0.242-1.169-0.169-1.808 0.014-0.117 0.043-0.216 0.096-0.323l5.898-0.144c-0.015 0.376 0.034 0.694 0.161 1.047 0.193 0.538 0.573 0.92 1.111 1.116 0.791 0.291 1.553 0.302 2.355 0.04 0.527-0.173 0.901-0.553 1.065-1.082 0.103-0.331 0.052-0.657-0.148-0.94-0.174-0.25-0.389-0.418-0.674-0.527-0.176-0.067-0.326-0.116-0.506-0.164-0.82-0.221-1.52-0.373-2.357-0.512-0.663-0.109-1.221-0.212-1.878-0.346-0.893-0.177-1.639-0.373-2.504-0.653-0.792-0.256-1.416-0.62-2.028-1.183-0.796-0.728-1.251-1.591-1.403-2.662-0.1-0.714-0.077-1.336 0.081-2.039 0.413-1.828 1.682-3.18 3.483-3.704 1.996-0.579 3.869-0.484 5.796 0.294 0.938 0.377 1.652 0.9 2.297 1.678l-0.416 3.013c-0.297-0.46-0.666-0.774-1.165-0.994-0.468-0.207-0.891-0.316-1.4-0.368-0.424-0.042-0.792-0.011-1.203 0.104-0.334 0.092-0.595 0.248-0.832 0.5-0.2 0.216-0.319 0.448-0.38 0.736-0.093 0.442 0.052 0.867 0.397 1.16 0.231 0.197 0.457 0.329 0.74 0.433 0.685 0.252 1.27 0.441 1.971 0.64 0.848 0.239 1.55 0.498 2.35 0.866 0.079-0.641 0.075-1.19-0.014-1.828-0.065-0.468-0.207-0.853-0.464-1.249l0.416-3.013c0.129-0.428 0.248-0.786 0.394-1.205 0.083-0.235 0.191-0.417 0.355-0.6h6.497c-0.277 0.435-0.418 0.865-0.453 1.381" fill="#0056A8"/></g><g id="g3588" transform="translate(323.2 676.88)"><path id="path3590" d="m0 0c-0.098 1.444-0.153 2.667-0.182 4.116-0.039 1.904-0.061 3.51-0.074 5.413-0.007 1.027-0.12 1.894-0.378 2.888-0.337 1.303-1.099 2.293-2.275 2.951-0.71 0.397-1.361 0.641-2.155 0.813-2.528 0.541-4.759 0.586-7.307 0.144-0.714-0.124-1.308-0.296-1.979-0.574-1.552-0.642-2.621-1.812-3.119-3.415-0.19-0.613-0.242-1.169-0.168-1.808 0.013-0.117 0.042-0.216 0.095-0.323l5.898-0.144c-0.014 0.376 0.034 0.694 0.161 1.047 0.193 0.538 0.573 0.92 1.111 1.116 0.792 0.291 1.553 0.302 2.354 0.04 0.528-0.173 0.903-0.553 1.068-1.082 0.101-0.331 0.05-0.657-0.15-0.94-0.175-0.25-0.39-0.418-0.674-0.527-0.176-0.067-0.326-0.116-0.507-0.164-0.819-0.221-1.52-0.373-2.356-0.512-0.662-0.109-1.221-0.212-1.879-0.346-0.892-0.177-1.637-0.373-2.504-0.653-0.79-0.256-1.414-0.62-2.027-1.183-0.796-0.728-1.25-1.591-1.403-2.662-0.101-0.714-0.077-1.336 0.082-2.039 0.411-1.828 1.682-3.18 3.481-3.704 1.998-0.579 3.869-0.484 5.797 0.294 0.937 0.377 1.653 0.9 2.298 1.678l-0.416 3.013c-0.297-0.46-0.667-0.774-1.167-0.994-0.467-0.207-0.891-0.316-1.398-0.368-0.426-0.042-0.792-0.011-1.204 0.104-0.334 0.092-0.595 0.248-0.831 0.5-0.201 0.216-0.32 0.448-0.381 0.736-0.092 0.442 0.052 0.867 0.397 1.16 0.23 0.197 0.456 0.329 0.74 0.433 0.685 0.252 1.271 0.441 1.972 0.64 0.848 0.239 1.549 0.498 2.35 0.866 0.078-0.641 0.074-1.19-0.015-1.828-0.065-0.468-0.208-0.853-0.463-1.249l0.416-3.013c0.128-0.428 0.247-0.786 0.394-1.205 0.082-0.235 0.19-0.417 0.354-0.6h6.497c-0.277 0.435-0.417 0.865-0.453 1.381" fill="#0056A8"/></g></g></g></g></svg>
