<?xml version="1.0" encoding="utf-8"?>
<!-- Generator: Adobe Illustrator 19.2.1, SVG Export Plug-In . SVG Version: 6.00 Build 0)  -->
<svg version="1.1" id="layer" xmlns="http://www.w3.org/2000/svg" xmlns:xlink="http://www.w3.org/1999/xlink" x="0px" y="0px"
	 viewBox="15 235 620 185" xml:space="preserve">
<style type="text/css">
	.st0{filter:url(#Adobe_OpacityMaskFilter);}
	.st1{fill:#FFFFFF;}
	.st2{mask:url(#mask-2_1_);fill:#E25F37;}
	.st3{fill:#171717;}
</style>
<g id="Symbols">
	<g id="Header_Desktop" transform="translate(-139.000000, -55.000000)">
		<g id="PhreesiaLogo_Desktop" transform="translate(139.000000, 55.000000)">
			<g id="Group-3">
				<g id="Clip-2">
				</g>
				<defs>
					<filter id="Adobe_OpacityMaskFilter" filterUnits="userSpaceOnUse" x="25.4" y="242.5" width="166.8" height="167.3">
						<feColorMatrix  type="matrix" values="1 0 0 0 0  0 1 0 0 0  0 0 1 0 0  0 0 0 1 0"/>
					</filter>
				</defs>
				<mask maskUnits="userSpaceOnUse" x="25.4" y="242.5" width="166.8" height="167.3" id="mask-2_1_">
					<g class="st0">
						<polygon id="path-1_1_" class="st1" points="108.8,409.7 25.5,409.7 25.5,242.5 108.8,242.5 192.2,242.5 192.2,409.7 						
							"/>
					</g>
				</mask>
				<path id="Fill-1" class="st2" d="M192.2,326.1c0,46.2-37.3,83.6-83.4,83.6c-46.1,0-83.4-37.4-83.4-83.6
					c0-46.2,37.3-83.6,83.4-83.6C154.9,242.5,192.2,279.9,192.2,326.1"/>
			</g>
			<path id="Fill-4" class="st3" d="M249.5,325.4h11.8c4.6,0,11,0,15.6-3.4c4.6-3.4,6.3-9.7,6.3-15.3c0-5.5-1.7-11.9-6.3-15.3
				c-4.7-3.4-11-3.4-15.6-3.4h-11.8V325.4z M259.2,283c6.3,0,15.6,0,22,4.2c6.3,4.2,8.9,11.4,8.9,19.1c0,9.3-3.8,16.1-9.7,19.9
				c-5.9,3.8-12.7,4.2-21.1,4.2h-9.7v32.2h-6.3V283H259.2L259.2,283z"/>
			<path id="Fill-5" class="st3" d="M311.2,280v35.6c1.3-6.8,6.3-11,16.4-11c8.9,0,13.5,3.3,16.2,7.2c3.4,5,3.4,11.2,3.4,17.4v33.5
				h-6.3v-33.5c0-5.6,0-9.8-2.5-13.6c-2-3-5.5-5.5-12.1-5.5c-13.7,0-15,11-15,17v35.6h-6.3V280H311.2"/>
			<path id="Fill-6" class="st3" d="M392,311.4c0,0-2.2-0.4-5-0.4c-13.6,0-14.1,10.8-14.1,17v34.8h-6.3v-56.8h4.7l1.3,10.6
				c2.1-8.9,9.3-11,17.3-11h2.1V311.4"/>
			<path id="Fill-7" class="st3" d="M436,330.3c0-13.2-4.7-20.6-14.3-20.6c-10,0-15.3,7.8-16.2,20.6H436z M439.8,361
				c0,0-6.2,2.5-15.1,2.5c-9.1,0-15.2-2.6-19.1-7c-4.4-4.9-6.8-12.7-6.8-22.3c0-18.9,8.9-29.7,23.3-29.7c8,0,14,3.4,17.3,9.7
				c3.4,6.4,3.4,14.8,3.4,20.8h-37.2c0,15,6.3,23.3,19.2,23.3c7.6,0,14.2-3,14.2-3h0.8V361L439.8,361z"/>
			<path id="Fill-8" class="st3" d="M492.6,330.3c0-13.2-4.6-20.6-14.3-20.6c-10,0-15.3,7.8-16.2,20.6H492.6z M496.4,361
				c0,0-6.2,2.5-15.1,2.5c-9.1,0-15.2-2.6-19.1-7c-4.4-4.9-6.8-12.7-6.8-22.3c0-18.9,8.9-29.7,23.3-29.7c8,0,13.9,3.4,17.3,9.7
				c3.4,6.4,3.4,14.8,3.4,20.8h-37.2c0,15,6.3,23.3,19.2,23.3c7.6,0,14.2-3,14.2-3h0.8V361L496.4,361z"/>
			<path id="Fill-9" class="st3" d="M543.8,312.7h-0.8c0,0-5.9-2.5-12.3-2.5c-7.2,0-11.4,3.4-11.4,8.7c0,13.5,26.6,10.1,26.6,29
				c0,11-9.1,15.7-19.6,15.7c-8.4,0-13.9-3-13.9-3v-5.5h0.8c0,0,6.8,3.4,14,3.4c7.6,0,12.3-3.8,12.3-10c0-14.6-26.6-11-26.6-28.6
				c0-8.9,6.8-14.8,18.4-14.8c7,0,12.5,2.1,12.5,2.1V312.7"/>
			<path id="Fill-10" class="st3" d="M562.4,362.7h6.3v-56.8h-6.3V362.7z M562,292.3h7.2v-8.1H562V292.3z"/>
			<path id="Fill-11" class="st3" d="M603.2,358.9c5.5,0,10.6-2.3,13.3-7.6c2.5-5,2.5-10.8,2.5-14.4v-1.3c-11.6,0-17.7,0-22.4,2.8
				c-4,2.3-5.5,5.9-5.5,9.6C591.1,354.7,595.8,358.9,603.2,358.9z M589,307.6c0,0,6.8-2.5,15.9-2.5c7.4,0,13.7,1.7,17.1,6.4
				c3.4,4.7,3.4,11,3.4,18.2v33.1h-4.7l-1.7-10.2c-1.3,5.5-5.9,11.4-16.6,11.4c-10.7,0-18.1-5.9-18.1-15.9c0-6.1,2.7-11.7,9.7-14.6
				c6.6-2.8,14.6-2.8,24.9-2.8c0-6.8,0-11.4-2.1-15.1c-2.1-3.6-6.2-5.5-12.7-5.5c-8,0-14.4,3-14.4,3H589V307.6L589,307.6z"/>
		</g>
	</g>
</g>
</svg>
