<?xml version="1.0" encoding="UTF-8" standalone="no"?>
<svg xmlns="http://www.w3.org/2000/svg" xml:space="preserve" version="1.0" viewBox="0 0 800 121.893">
  <path fill="#e61e1e" d="M765.45 119.78H800L764.35 2.12l-49.1-.002-35.65 117.66h34.56l6.3-21.78h38.66l6.33 21.78m-37.51-47.943 11.76-40.651h.2l11.76 40.651h-23.72zM172.48 121.89c35.48 0 52.63-6.25 55.06-38.265.58-7.618.69-15.439.69-22.689.01-7.225-.11-15.054-.69-22.671C225.11 6.24 207.96 0 172.48 0s-52.62 6.24-55.04 38.265c-.59 7.617-.71 15.446-.71 22.671.01 7.25.12 15.071.71 22.689 2.42 32.015 19.56 38.265 55.04 38.265m-22.31-60.954c0-6.461.16-10.28.3-13.114.9-18.161 8.07-20.278 22.01-20.278 13.95 0 21.12 2.117 22.01 20.278.14 2.833.31 6.652.31 13.114 0 6.482-.17 10.308-.31 13.135-.89 18.164-8.06 20.285-22.01 20.285-13.94 0-21.11-2.121-22.01-20.285-.14-2.827-.3-6.653-.3-13.135zM0 2.172v29.331h35.172v88.327h35.185V31.503h35.173V2.172H0M539.85 119.78V2.118h-33.39V119.78h33.39M405.5 45.077V2.118h-33.2V119.78h33.2V74.408h38.58v45.372h33.19V2.118h-33.19v42.959H405.5m244.17 13.206c14.79-3.781 19.13-12.616 19.13-25.386 0-25.859-16.27-30.78-39.4-30.78h-59.95v117.66h62.92c28.97 0 38.71-12.48 38.71-31.675 0-13.383-3.06-25.191-21.41-29.822m-47.03 13.169h23.02c9.3 0 11.24 4.074 11.24 10.7 0 6.632-3.64 10.717-11.24 10.717h-23.02V71.449zm0-42.425h23.02c6.01 0 9.73 2.851 9.73 9.708 0 5.878-3.68 9.496-9.73 9.496h-23.02V29.024zM247.58 81.167h31.65c.03 5.708.76 9.523 3.53 11.63 3.15 2.374 5.97 3.158 15.32 3.158 9 0 18.86 0 18.86-11.085 0-8.742-5.51-10.737-15.68-11.279-25.22-1.336-34.34-2.049-43.73-9.025-6.4-4.757-9.72-14.018-9.72-26.542 0-21.297 7.43-28.768 18.15-33.981 11.06-5.381 54.47-5.381 66.15 0 14.69 6.768 15.12 21.42 15.12 35.011h-31.57c-.06-6.929-1.62-8.886-2.89-10.175-3.28-2.908-7.95-3.522-14.69-3.522-8.16 0-17.6.368-17.6 10.277 0 7.56 3.27 10.72 11.85 11.276 11.79.754 35.02 1.497 43.3 6.383 11.61 6.867 14.62 16.159 14.62 31.319 0 21.908-7.84 28.338-18.75 33.158-12.59 5.56-54.64 5.56-68.31-.43-15.3-6.67-15.61-19.964-15.61-36.173"/>
</svg>