<svg xmlns="http://www.w3.org/2000/svg" version="1.1" xmlns:xlink="http://www.w3.org/1999/xlink" width="512" height="512" x="0" y="0" viewBox="0 0 520 520" style="enable-background:new 0 0 512 512" xml:space="preserve"><g><path d="M79.423 240.755a47.529 47.529 0 0 0-36.737 77.522l120.73 147.894a43.136 43.136 0 0 0 36.066 16.009c14.654-.787 27.884-8.626 36.319-21.515L486.588 56.773a6.13 6.13 0 0 1 .128-.2c2.353-3.613 1.59-10.773-3.267-15.271a13.321 13.321 0 0 0-19.362 1.343q-.135.166-.278.327L210.887 328.736a10.961 10.961 0 0 1-15.585.843l-83.94-76.386a47.319 47.319 0 0 0-31.939-12.438z" data-name="7-Check" fill="#00b07e" opacity="1" data-original="#000000"></path></g></svg>