<svg width="70" height="70" viewBox="0 0 70 70" fill="none" xmlns="http://www.w3.org/2000/svg">
<g filter="url(#filter0_i_0_1)">
<rect width="70" height="70" rx="35" fill="black"/>
</g>
<rect x="1" y="1" width="68" height="68" rx="34" stroke="#6E00FF" stroke-width="2"/>
<path d="M28.214 47C28.06 47 27.917 46.989 27.785 46.967C27.169 46.945 26.641 46.714 26.201 46.274C25.761 45.812 25.541 45.273 25.541 44.657C25.563 43.667 25.552 40.499 25.508 35.153C25.464 29.829 25.486 26.661 25.574 25.649C25.596 25.055 25.838 24.538 26.3 24.098C26.784 23.658 27.345 23.449 27.983 23.471C28.181 23.405 28.379 23.372 28.577 23.372C29.435 23.284 30.073 23.229 30.491 23.207C30.755 23.185 31.151 23.163 31.679 23.141C32.207 23.119 32.757 23.119 33.329 23.141C33.923 23.141 34.44 23.174 34.88 23.24C35.518 23.35 36.255 23.493 37.091 23.669C37.905 23.867 38.675 24.164 39.401 24.56C40.127 24.956 40.787 25.429 41.381 25.979C42.525 27.013 43.383 28.256 43.955 29.708C44.549 31.16 44.835 32.733 44.813 34.427C44.791 36.143 44.549 37.716 44.087 39.146C43.603 40.598 42.866 41.918 41.876 43.106C40.886 44.272 39.731 45.185 38.411 45.845C37.025 46.505 35.199 46.89 32.933 47C32.471 47.022 31.646 47.022 30.458 47C29.27 47 28.522 47 28.214 47ZM32.735 42.479C34.363 42.369 35.573 42.127 36.365 41.753C37.685 41.115 38.697 40.048 39.401 38.552C39.863 37.562 40.127 36.473 40.193 35.285C40.259 34.097 40.127 32.975 39.797 31.919C39.489 30.841 38.983 29.983 38.279 29.345C37.421 28.575 36.332 28.091 35.012 27.893C33.714 27.695 32.086 27.673 30.128 27.827C30.106 29.917 30.095 31.523 30.095 32.645C30.095 33.635 30.095 34.713 30.095 35.879C30.117 37.045 30.128 38.2 30.128 39.344C30.15 40.488 30.161 41.522 30.161 42.446C31.239 42.49 32.097 42.501 32.735 42.479ZM50.0353 42.908C50.4973 43.37 50.7503 43.865 50.7943 44.393C50.8383 44.899 50.7283 45.372 50.4643 45.812C50.2223 46.252 49.8813 46.604 49.4413 46.868C49.0013 47.11 48.5173 47.209 47.9893 47.165C47.4833 47.121 46.9993 46.868 46.5373 46.406C46.0753 45.944 45.8223 45.46 45.7783 44.954C45.7343 44.426 45.8333 43.942 46.0753 43.502C46.3393 43.062 46.6913 42.721 47.1313 42.479C47.5713 42.215 48.0443 42.105 48.5503 42.149C49.0783 42.193 49.5733 42.446 50.0353 42.908Z" fill="white"/>
<defs>
<filter id="filter0_i_0_1" x="0" y="0" width="70" height="70" filterUnits="userSpaceOnUse" color-interpolation-filters="sRGB">
<feFlood flood-opacity="0" result="BackgroundImageFix"/>
<feBlend mode="normal" in="SourceGraphic" in2="BackgroundImageFix" result="shape"/>
<feColorMatrix in="SourceAlpha" type="matrix" values="0 0 0 0 0 0 0 0 0 0 0 0 0 0 0 0 0 0 127 0" result="hardAlpha"/>
<feOffset/>
<feGaussianBlur stdDeviation="10"/>
<feComposite in2="hardAlpha" operator="arithmetic" k2="-1" k3="1"/>
<feColorMatrix type="matrix" values="0 0 0 0 0.431373 0 0 0 0 0 0 0 0 0 1 0 0 0 1 0"/>
<feBlend mode="normal" in2="shape" result="effect1_innerShadow_0_1"/>
</filter>
</defs>
</svg>
