<svg xmlns="http://www.w3.org/2000/svg" version="1.1" xmlns:xlink="http://www.w3.org/1999/xlink" width="512" height="512" x="0" y="0" viewBox="0 0 24 24" style="enable-background:new 0 0 512 512" xml:space="preserve" class=""><g><path d="M18 23H4c-1.654 0-3-1.346-3-3V6c0-1.654 1.346-3 3-3h8a1 1 0 1 1 0 2H4c-.551 0-1 .448-1 1v14c0 .552.449 1 1 1h14c.551 0 1-.448 1-1v-8a1 1 0 1 1 2 0v8c0 1.654-1.346 3-3 3z" fill="#9ca3af" opacity="1" data-original="#000000" class=""></path><path d="M22 1h-6a1 1 0 0 0-.707 1.707L17.586 5l-7.293 7.293a.999.999 0 1 0 1.414 1.414L19 6.414l2.293 2.293A1 1 0 0 0 23 8V2a1 1 0 0 0-1-1z" fill="#9ca3af" opacity="1" data-original="#000000" class=""></path></g></svg>