<?xml version="1.0" encoding="UTF-8" standalone="no"?>
<!-- Created with Inkscape (http://www.inkscape.org/) -->

<svg
   xmlns:dc="http://purl.org/dc/elements/1.1/"
   xmlns:cc="http://creativecommons.org/ns#"
   xmlns:rdf="http://www.w3.org/1999/02/22-rdf-syntax-ns#"
   xmlns:svg="http://www.w3.org/2000/svg"
   xmlns="http://www.w3.org/2000/svg"
   xmlns:sodipodi="http://sodipodi.sourceforge.net/DTD/sodipodi-0.dtd"
   xmlns:inkscape="http://www.inkscape.org/namespaces/inkscape"
   width="28.131598mm"
   height="28.131594mm"
   viewBox="0 0 28.131598 28.131594"
   version="1.1"
   id="svg8"
   inkscape:version="0.92.3 (2405546, 2018-03-11)"
   sodipodi:docname="axa-logo.svg">
  <defs
     id="defs2">
    <style
       id="style58">.cls-1{fill:#00008f;}.cls-2{fill:#ff1721;}.cls-3{fill:#fff;}</style>
  </defs>
  <sodipodi:namedview
     id="base"
     pagecolor="#00ffff"
     bordercolor="#666666"
     borderopacity="1.0"
     inkscape:pageopacity="0"
     inkscape:pageshadow="2"
     inkscape:zoom="0.7"
     inkscape:cx="131.46973"
     inkscape:cy="-389.58457"
     inkscape:document-units="mm"
     inkscape:current-layer="layer1"
     showgrid="false"
     fit-margin-top="0"
     fit-margin-left="0"
     fit-margin-right="0"
     fit-margin-bottom="0"
     inkscape:window-width="1920"
     inkscape:window-height="1001"
     inkscape:window-x="-9"
     inkscape:window-y="-9"
     inkscape:window-maximized="1" />
  <metadata
     id="metadata5">
    <rdf:RDF>
      <cc:Work
         rdf:about="">
        <dc:format>image/svg+xml</dc:format>
        <dc:type
           rdf:resource="http://purl.org/dc/dcmitype/StillImage" />
        <dc:title></dc:title>
      </cc:Work>
    </rdf:RDF>
  </metadata>
  <g
     inkscape:label="Layer 1"
     inkscape:groupmode="layer"
     id="layer1"
     transform="translate(-84.585989,-14.571111)">
    <g
       id="g76"
       transform="matrix(0.09924117,0,0,0.09924117,84.585989,14.571111)">
      <rect
         height="283.46448"
         width="283.46448"
         y="0.0024999999"
         x="0.0024999999"
         class="cls-1"
         id="base-2"
         style="fill:#00008f" />
      <polygon
         points="159.38,139.99 175.659,139.99 283.467,0 267.544,0 "
         class="cls-2"
         id="switch"
         style="fill:#ff1721" />
      <path
         d="m 216.597,202.461 c 4.941,13.823 15.122,49.795 19.1695,52.661 H 209.038 a 44.57134,44.57134 0 0 0 -1.2545,-9.4335 c -1.1525,-4.1115 -10.8205,-35.215 -10.8205,-35.215 h -42.456 l -6.675,9.463 c 0,0 8.0175,25.0975 8.5155,26.328 0.8645,2.217 4.6925,8.8575 4.6925,8.8575 h -25.615 c 0,0 -0.664,-3.833 -0.913,-5.4295 -0.2005,-1.289 -2.427,-8.3495 -2.427,-8.3495 0,0 -5.8055,6.362 -7.3875,9.3115 -1.597,2.944 -2.305,4.4675 -2.305,4.4675 h -20.039 c 0,0 -0.669,-3.833 -0.918,-5.4295 -0.195,-1.289 -2.64652,-8.916 -2.64652,-8.916 0,0 -5.61,6.8115 -7.207,9.7555 -1.587,2.9495 -2.2705,4.59 -2.2705,4.59 h -19.819 c 0,0 5.6005,-5.332 7.5585,-7.622 3.3005,-3.882 15.6005,-19.956 15.6005,-19.956 L 87.72,210.47349 H 45.586 c 0,0 -24.0235,31.5675 -24.97049,32.544 -0.957,0.962 -7.959,11.011 -8.11551,12.1045 H 0 v -7.949 a 5.9865,5.9865 0 0 1 0.493,-0.4785 c 0.386,-0.2835 18.213,-22.4125 34.59,-44.2335 14.717,-19.0285 28.5255,-37.5345 29.7365,-39.297 2.9345,-4.2625 7.163,-13.4665 7.163,-13.4665 h 21.782 c 0,0 0.674,8.4665 1.309,10.522 0.566,1.8165 13.8375,45.3615 14.15,45.8305 l 7.339,-9.385 -12.544,-38.6135 c 0,0 -2.9395,-7.2655 -3.8965,-8.354 h 25.4445 a 22.1658,22.1658 0 0 0 0.83,6.9185 c 1.035,3.184 6.4895,22.8665 6.4895,22.8665 0,0 17.3535,-21.753 18.369,-23.3155 a 14.1,14.1 0 0 0 2.1435,-6.4695 h 21.201 c 0,0 -3.8815,2.8365 -10.6835,11.44 -2.285,2.8955 -24.673,31.348 -24.673,31.348 0,0 1.9535,6.66 2.9055,9.97552 0.259,0.952 0.4395,1.5965 0.4395,1.665 0,0.0295 0.493,-0.576 1.34252,-1.665 5.77648,-7.3195 32.051,-41.7725 33.643,-44.722 1.284,-2.3825 3.1735,-5.0925 4.282,-8.0415 H 202.539 c 0,0 0.4785,6.1765 1.1085,7.8855 z m -31.475,-32.6125 c -3.037,6.5335 -20.913,28.296 -20.913,28.296 h 28.3105 c 0,0 -5.488,-16.8995 -6.445,-20.708 a 30.23266,30.23266 0 0 1 -0.557,-7.4025 c -2e-5,-0.3465 -0.0635,-0.908 -0.3955,-0.1855 z m -108.7745,0 c -3.037,6.5335 -20.913,28.296 -20.913,28.296 H 83.745 c 0,0 -5.483,-16.8995 -6.44,-20.708 a 30.23266,30.23266 0 0 1 -0.557,-7.4025 c 0,-0.3465 -0.068,-0.908 -0.40051,-0.1855 z m 42.6225,65.9865 7.793,-10.703 c -0.718,-0.77152 -5.10748,-14.082 -5.10748,-14.082 l -7.53452,9.775 z"
         class="cls-3"
         id="axa"
         inkscape:connector-curvature="0"
         style="fill:#ffffff" />
    </g>
  </g>
</svg>
