<?xml version="1.0" encoding="utf-8"?>
<!-- Generator: Adobe Illustrator 23.0.1, SVG Export Plug-In . SVG Version: 6.00 Build 0)  -->
<svg version="1.1"
	 id="svg3409" inkscape:version="0.91 r13725" sodipodi:docname="MasterCard 2016.svg" xmlns:cc="http://creativecommons.org/ns#" xmlns:dc="http://purl.org/dc/elements/1.1/" xmlns:inkscape="http://www.inkscape.org/namespaces/inkscape" xmlns:rdf="http://www.w3.org/1999/02/22-rdf-syntax-ns#" xmlns:sodipodi="http://sodipodi.sourceforge.net/DTD/sodipodi-0.dtd" xmlns:svg="http://www.w3.org/2000/svg"
	 xmlns="http://www.w3.org/2000/svg" xmlns:xlink="http://www.w3.org/1999/xlink" x="0px" y="0px" width="999.2px" height="776px"
	 viewBox="0 0 999.2 776" enable-background="new 0 0 999.2 776" xml:space="preserve">
<path id="XMLID_1775_" inkscape:connector-curvature="0" d="M181.1,774.3v-51.5c0-19.7-12-32.6-32.6-32.6
	c-10.3,0-21.5,3.4-29.2,14.6c-6-9.4-14.6-14.6-27.5-14.6c-8.6,0-17.2,2.6-24,12v-10.3h-18v82.4h18v-45.5c0-14.6,7.7-21.5,19.7-21.5
	s18,7.7,18,21.5v45.5h18v-45.5c0-14.6,8.6-21.5,19.7-21.5c12,0,18,7.7,18,21.5v45.5H181.1z M448.1,691.9h-29.2V667h-18v24.9h-16.3
	v16.3h16.3v37.8c0,18.9,7.7,30,28.3,30c7.7,0,16.3-2.6,22.3-6l-5.2-15.5c-5.2,3.4-11.2,4.3-15.5,4.3c-8.6,0-12-5.2-12-13.7v-36.9
	h29.2V691.9z M600.9,690.1c-10.3,0-17.2,5.2-21.5,12v-10.3h-18v82.4h18v-46.4c0-13.7,6-21.5,17.2-21.5c3.4,0,7.7,0.9,11.2,1.7
	l5.2-17.2C609.4,690.1,604.3,690.1,600.9,690.1L600.9,690.1z M370,698.7c-8.6-6-20.6-8.6-33.5-8.6c-20.6,0-34.3,10.3-34.3,26.6
	c0,13.7,10.3,21.5,28.3,24l8.6,0.9c9.4,1.7,14.6,4.3,14.6,8.6c0,6-6.9,10.3-18.9,10.3c-12,0-21.5-4.3-27.5-8.6l-8.6,13.7
	c9.4,6.9,22.3,10.3,35.2,10.3c24,0,37.8-11.2,37.8-26.6c0-14.6-11.2-22.3-28.3-24.9l-8.6-0.9c-7.7-0.9-13.7-2.6-13.7-7.7
	c0-6,6-9.4,15.5-9.4c10.3,0,20.6,4.3,25.8,6.9L370,698.7L370,698.7z M848.9,690.1c-10.3,0-17.2,5.2-21.5,12v-10.3h-18v82.4h18v-46.4
	c0-13.7,6-21.5,17.2-21.5c3.4,0,7.7,0.9,11.2,1.7L861,691C857.5,690.1,852.4,690.1,848.9,690.1L848.9,690.1z M618.9,733.1
	c0,24.9,17.2,42.9,43.8,42.9c12,0,20.6-2.6,29.2-9.4l-8.6-14.6c-6.9,5.2-13.7,7.7-21.5,7.7c-14.6,0-24.9-10.3-24.9-26.6
	c0-15.5,10.3-25.8,24.9-26.6c7.7,0,14.6,2.6,21.5,7.7l8.6-14.6c-8.6-6.9-17.2-9.4-29.2-9.4C636.1,690.1,618.9,708.2,618.9,733.1
	L618.9,733.1L618.9,733.1z M785.4,733.1v-41.2h-18v10.3c-6-7.7-14.6-12-25.8-12c-23.2,0-41.2,18-41.2,42.9c0,24.9,18,42.9,41.2,42.9
	c12,0,20.6-4.3,25.8-12v10.3h18V733.1L785.4,733.1z M719.3,733.1c0-14.6,9.4-26.6,24.9-26.6c14.6,0,24.9,11.2,24.9,26.6
	c0,14.6-10.3,26.6-24.9,26.6C728.8,758.8,719.3,747.6,719.3,733.1L719.3,733.1z M503.9,690.1c-24,0-41.2,17.2-41.2,42.9
	c0,25.8,17.2,42.9,42.1,42.9c12,0,24-3.4,33.5-11.2l-8.6-12.9c-6.9,5.2-15.5,8.6-24,8.6c-11.2,0-22.3-5.2-24.9-19.7h60.9
	c0-2.6,0-4.3,0-6.9C542.5,707.3,527,690.1,503.9,690.1L503.9,690.1L503.9,690.1z M503.9,705.6c11.2,0,18.9,6.9,20.6,19.7h-42.9
	C483.3,714.2,491,705.6,503.9,705.6L503.9,705.6z M951.1,733.1v-73.8h-18v42.9c-6-7.7-14.6-12-25.8-12c-23.2,0-41.2,18-41.2,42.9
	c0,24.9,18,42.9,41.2,42.9c12,0,20.6-4.3,25.8-12v10.3h18V733.1L951.1,733.1z M885,733.1c0-14.6,9.4-26.6,24.9-26.6
	c14.6,0,24.9,11.2,24.9,26.6c0,14.6-10.3,26.6-24.9,26.6C894.4,758.8,885,747.6,885,733.1L885,733.1z M282.4,733.1v-41.2h-18v10.3
	c-6-7.7-14.6-12-25.8-12c-23.2,0-41.2,18-41.2,42.9c0,24.9,18,42.9,41.2,42.9c12,0,20.6-4.3,25.8-12v10.3h18V733.1L282.4,733.1z
	 M215.5,733.1c0-14.6,9.4-26.6,24.9-26.6c14.6,0,24.9,11.2,24.9,26.6c0,14.6-10.3,26.6-24.9,26.6
	C224.9,758.8,215.5,747.6,215.5,733.1z"/>
<g>
	<rect id="rect19" x="364" y="66.1" fill="#FF5A00" width="270.4" height="485.8"/>
	<path id="XMLID_330_" inkscape:connector-curvature="0" fill="#EB001B" d="M382,309c0-98.7,46.4-186.3,117.6-242.9
		C447.2,24.9,381.1,0,309,0C138.2,0,0,138.2,0,309s138.2,309,309,309c72.1,0,138.2-24.9,190.6-66.1C428.3,496.1,382,407.7,382,309z"
		/>
	<path id="path22" inkscape:connector-curvature="0" fill="#F79E1B" d="M999.2,309c0,170.8-138.2,309-309,309
		c-72.1,0-138.2-24.9-190.6-66.1c72.1-56.7,117.6-144.2,117.6-242.9S570.8,122.7,499.6,66.1C551.9,24.9,618,0,690.1,0
		C861,0,999.2,139.1,999.2,309z"/>
</g>
</svg>
