<?xml version="1.0" encoding="UTF-8" standalone="no"?>
<!DOCTYPE svg PUBLIC "-//W3C//DTD SVG 1.1//EN" "http://www.w3.org/Graphics/SVG/1.1/DTD/svg11.dtd">
<!-- Created with Inkscape (http://www.inkscape.org/) by Marsupilami -->
<svg
   xmlns:svg="http://www.w3.org/2000/svg"
   xmlns="http://www.w3.org/2000/svg"
   id="svg352"
   version="1.1"
   width="999.99915"
   height="409.43359">
  <defs
     id="defs349" />
  <path
     style="fill:#0190ff;fill-opacity:1;stroke:none;stroke-width:0.20077688px;stroke-linecap:butt;stroke-linejoin:miter;stroke-opacity:1"
     d="m 19.4861,163.82961 c 11.7991,-43.1384 60.9416,-53.405 106.1867,-54.6733 37.1946,-1.0426 78.666,3.8755 78.666,3.8755 l -19.4861,71.2433 c 0,0 -41.4714,-4.9181 -78.666,-3.8755 C 60.942,181.66791 11.7992,191.93451 0,235.07291 Z"
     id="path4664" />
  <path
     id="path4655"
     d="m 645.57617,87.980474 c -59.56449,4e-4 -74.82368,57.647346 -83.36328,88.869146 l -63.62695,232.58397 h 37.12109 l 56.41211,-206.23046 h 38.55469 l -25.66602,93.84179 h 37.1211 l 30.78125,-112.53905 h -75.67383 c 3.87721,-14.1845 8.01224,-29.29559 11.38281,-41.61719 6.22395,-22.7554 16.39036,-39.28031 31.17578,-38.72461 16.34099,0.6142 8.02467,11.34439 5.78711,19.52539 -3.09568,11.3183 5.26227,22.69922 19.90625,22.69922 31.80831,0 39.65238,-58.408206 -19.91211,-58.408206 z M 435.00195,128.67774 v 0.002 l -46.05078,168.36522 h 38.69922 l 17.05273,-62.34764 h 33.61524 c 37.0919,0 61.70718,-20.47174 68.36328,-48.92774 6.2149,-26.5694 -9.30329,-57.0918 -50.86719,-57.0918 -20.2719,4e-4 -40.5396,0 -60.8125,0 z m 33.28125,19.8125 h 14.87891 c 15.5779,0 27.93742,12.47008 24.95312,34.17188 -2.7664,20.1172 -24.6112,32.17578 -43.6582,32.17578 h -14.32226 z m 366.97657,32.60743 c -32.5391,0 -56.01173,27.99295 -61.64454,55.96875 -5.41283,26.88279 10.00375,62.60741 52.44727,62.60741 30.16642,0 45.33789,-13.28321 45.33789,-13.28321 l -6.94336,-17.13867 c 0,0 -12.68211,10.32227 -30.35351,10.32227 -17.67123,0 -28.75712,-13.94923 -26.30469,-36.17773 h 72.16211 c 5.15877,-13.0901 7.98353,-62.29882 -44.70117,-62.29882 z m 143.83984,1.51367 c -24.20185,0 -38.4707,24.99219 -38.4707,24.99219 l 6.3164,-23.09571 h -37.12109 l -30.78125,112.5371 h 37.12109 c 0,0 8.93917,-32.88002 13.48828,-49.29492 7.02286,-25.65939 21.346,-41.72726 28.23243,-42.38476 7.95812,-0.7598 7.19612,18.41602 22.71679,18.41602 23.54414,0 28.62264,-41.16992 -1.49804,-41.16992 z m -292.20313,1.89648 -5.11523,18.69922 h 47.05273 l -73.9707,93.83788 h 104.45703 l 5.11328,-18.69922 h -53.07812 l 73.96875,-93.83788 z m 148.22461,15.17188 v 0.002 c 20.18248,0 15.58985,26.64844 15.58985,26.64844 l -40.43164,-0.0937 c 0,0 6.70553,-26.55664 24.84179,-26.55664 z"
     style="fill:#2b01be;fill-opacity:1;stroke:none;stroke-width:0.20077688px;stroke-linecap:butt;stroke-linejoin:miter;stroke-opacity:1" />
  <path
     style="fill:#2b01be;fill-opacity:1;stroke:none;stroke-width:0.20077688px;stroke-linecap:butt;stroke-linejoin:miter;stroke-opacity:1"
     d="M 301.8419,297.3069 C 168.7224,289.0059 14.0255,220.34151 19.4861,163.82961 L 1.1196,230.98071 C -4.4516,288.6378 139.0512,357.0924 282.3559,368.5503 Z"
     id="path4668" />
  <path
     id="path4672"
     d="m 350.2187,204.72081 c -11.7989,43.13829 -60.9416,53.40489 -106.1864,54.67319 -37.1946,1.0426 -78.6657,-3.8755 -78.6657,-3.8755 l 19.4861,-71.24339 c 0,0 41.4711,4.91819 78.666,3.8756 45.2444,-1.26831 94.3871,-11.5349 106.186,-54.6733 z"
     style="fill:#2b01be;fill-opacity:1;stroke:none;stroke-width:0.20077688px;stroke-linecap:butt;stroke-linejoin:miter;stroke-opacity:1" />
  <path
     id="path4674"
     d="m 67.8627,71.243305 c 133.12,8.3011 287.8165,76.965605 282.356,133.477505 l 18.3667,-67.1511 C 374.1564,79.912405 230.6538,11.4579 87.3487,0 Z"
     style="fill:#0190ff;fill-opacity:1;stroke:none;stroke-width:0.20077688px;stroke-linecap:butt;stroke-linejoin:miter;stroke-opacity:1" />
</svg>
