<svg xmlns="http://www.w3.org/2000/svg" xml:space="preserve" width="950" height="157.02" viewBox="0 0 251.35 41.55">
  <path d="M99.2 5.96H73.74v5.63h9.4v24h6.67v-24h9.4V5.96m24.89 19.57a8.17 8.17 0 0 1-6.16 5.03 8.96 8.96 0 0 1-1.54.14c-.53 0-1.05-.05-1.55-.14a8.15 8.15 0 0 1-6.15-5.03 13 13 0 0 1-.9-4.76 13 13 0 0 1 .9-4.75 8.16 8.16 0 0 1 6.15-5.04 8.52 8.52 0 0 1 3.1 0 8.16 8.16 0 0 1 6.15 5.03 13.1 13.1 0 0 1 0 9.52m-7.7-20.46a15.7 15.7 0 1 0 0 31.41 15.7 15.7 0 0 0 0-31.41zm15.8.9h7.86l7.33 12.73 7.33-12.74h7.85l-11.85 18.67v10.96h-6.66V24.63L132.2 5.96m46.2 24.74c.52 0 1.04-.05 1.54-.14a8.15 8.15 0 0 0 6.15-5.03 13 13 0 0 0 0-9.51 8.15 8.15 0 0 0-6.15-5.03 8.78 8.78 0 0 0-3.1 0 8.15 8.15 0 0 0-6.14 5.03 12.99 12.99 0 0 0-.9 4.75c0 1.68.32 3.29.9 4.76a8.14 8.14 0 0 0 6.15 5.03 8.84 8.84 0 0 0 1.55.14m-15.7-9.93a15.7 15.7 0 1 1 31.4 0 15.7 15.7 0 0 1-31.4 0zm76.87 3.1-4.36-11.71-4.37 11.7h8.73m1.93 5.19h-12.6l-2.43 6.52h-7.42l12-29.63h8.3l12 29.63h-7.4zM221.01 5.96h-25.46v5.63h9.4v24h6.67v-24H221V5.96M46.54 2.04A47.5 47.5 0 0 0 32.22 0 47.5 47.5 0 0 0 17.9 2.04C7.3 5.45 0 12.53 0 20.69c0 11.49 14.4 20.86 32.22 20.86 17.78 0 32.22-9.33 32.22-20.86 0-8.16-7.28-15.24-17.9-18.65zM32.22 32.6c-2.66 0-4.83-5.2-4.95-11.79 1.58.17 3.24.21 4.95.21 1.7 0 3.37-.08 4.96-.2-.13 6.57-2.3 11.78-4.96 11.78ZM27.6 15.7c.7-4.63 2.5-7.87 4.62-7.87 2.08 0 3.87 3.24 4.62 7.86a52.52 52.52 0 0 1-9.24.01zm12.07-.38c-1.08-7.2-4-12.4-7.45-12.4s-6.37 5.16-7.45 12.4c-6.54-1.04-11.12-3.33-11.12-6.04 0-3.66 8.33-6.62 18.57-6.62S50.8 5.62 50.8 9.28c0 2.7-4.58 5.04-11.12 6.04zM4.7 19.94c0-3.54 1.38-6.83 3.75-9.7-.04.2-.04.42-.04.58 0 4.46 6.66 8.2 15.94 9.62v1c0 8.24 2.3 15.24 5.46 17.65-14.07-.83-25.1-9.08-25.1-19.15zm29.94 19.2c3.16-2.42 5.45-9.42 5.45-17.66v-1c9.28-1.37 15.94-5.16 15.94-9.61 0-.21 0-.42-.04-.59a15.06 15.06 0 0 1 3.75 9.7c0 10.03-11.03 18.28-25.1 19.15z"/>
</svg>