<svg id="Layer_1" data-name="Layer 1" xmlns="http://www.w3.org/2000/svg" viewBox="0 0 96 96"><defs><style>.cls-1{fill-rule:evenodd;}.cls-2{fill:#fff;}</style></defs><title>icon</title><path class="cls-1" d="M7.27,0H88.73A7.28,7.28,0,0,1,96,7.27V88.73A7.28,7.28,0,0,1,88.73,96H7.27A7.28,7.28,0,0,1,0,88.73V7.27A7.28,7.28,0,0,1,7.27,0Z"/><path class="cls-2" d="M18.8,52.91A5.61,5.61,0,0,0,20,54.81,5,5,0,0,0,21.71,56a5.71,5.71,0,0,0,2.2.42,5.34,5.34,0,0,0,3.95-1.66A5.54,5.54,0,0,0,29,52.89a6.75,6.75,0,0,0,.42-2.44V36.54h3.38V59.07H29.48V57a7.77,7.77,0,0,1-2.65,1.83,8.41,8.41,0,0,1-3.3.65,8.89,8.89,0,0,1-3.36-.63A8,8,0,0,1,17.46,57a8.44,8.44,0,0,1-1.8-2.78A9.53,9.53,0,0,1,15,50.64V36.54h3.38V50.45a6.9,6.9,0,0,0,.42,2.46ZM77,46.68a4.34,4.34,0,0,0-1,3.06v9.33H72.73V42.66H76v2a4.54,4.54,0,0,1,1.59-1.58,4.45,4.45,0,0,1,2.33-.58H81v3H79.65A3.42,3.42,0,0,0,77,46.68Zm-22.08.9a8.87,8.87,0,0,1,1.77-2.72A8.29,8.29,0,0,1,59.38,43,8.69,8.69,0,0,1,66,43a7.69,7.69,0,0,1,2.61,1.79,8.18,8.18,0,0,1,1.71,2.7,9.37,9.37,0,0,1,.61,3.39v1.07H57.57a5.44,5.44,0,0,0,.65,1.85,5.74,5.74,0,0,0,1.2,1.48,5.9,5.9,0,0,0,1.64,1,5.52,5.52,0,0,0,1.95.35,5.62,5.62,0,0,0,4.73-2.41l2.35,1.74A8.55,8.55,0,0,1,63,59.42a9.1,9.1,0,0,1-3.43-.64A8.38,8.38,0,0,1,55,54.26a8.46,8.46,0,0,1-.68-3.4,8.63,8.63,0,0,1,.64-3.28Zm4.53-1.27a5.45,5.45,0,0,0-1.82,3h10a5.29,5.29,0,0,0-1.78-3,5.06,5.06,0,0,0-6.4,0ZM38.65,36.54v8.21A8.6,8.6,0,0,1,41.26,43a7.83,7.83,0,0,1,3.22-.66,8.65,8.65,0,0,1,6.11,2.51,8.77,8.77,0,0,1,1.83,2.74,8.26,8.26,0,0,1,.68,3.35,8.13,8.13,0,0,1-.68,3.33A8.8,8.8,0,0,1,50.59,57a8.65,8.65,0,0,1-6.11,2.51,8,8,0,0,1-3.24-.66A8.65,8.65,0,0,1,38.62,57v2.06H35.4V36.54ZM39,53.12a5.65,5.65,0,0,0,1.21,1.8A5.79,5.79,0,0,0,42,56.14a5.51,5.51,0,0,0,2.22.45,5.43,5.43,0,0,0,2.19-.45,5.74,5.74,0,0,0,1.79-1.22,6.16,6.16,0,0,0,1.2-1.8,5.51,5.51,0,0,0,.45-2.22,5.6,5.6,0,0,0-.45-2.24,6,6,0,0,0-1.2-1.82,5.55,5.55,0,0,0-1.79-1.21,5.64,5.64,0,0,0-6.18,1.21A5.88,5.88,0,0,0,39,48.66a5.6,5.6,0,0,0-.45,2.24A5.67,5.67,0,0,0,39,53.12Z"/></svg>