<svg version="1.1" id="Layer_1" xmlns="http://www.w3.org/2000/svg" xmlns:xlink="http://www.w3.org/1999/xlink" x="0px" y="0px" viewBox="-624.7 466 475.7 150" style="enable-background:new -624.7 466 475.7 150;" xml:space="preserve">
 <style type="text/css">
  .st0{fill:#FFFFFF;}
 </style>
 <g>
  <g>
   <g>
    <path class="st0" d="M-474.7,616h-150V466h150V616z M-620,611.3h140.6V470.7H-620V611.3z">
    </path>
   </g>
   <path class="st0" d="M-521.6,514.6v-14.2h-43.7v30.5h-1.2h-8.2v9.7h2.6h6.8v7.7h-1.5h-8v9.7h2.3h7.1v29.9h16.9V558h15l4.2-9.7
			h-19.2V545v-4.4h22.6l4.2-9.7h-26.8v-16.3H-521.6z">
   </path>
  </g>
  <g transform="translate(56.517261 10.284899)">
   <path class="st0" d="M-304.9,588.3c5,0,8.7,3.7,8.7,8.7c0,4.8-3.9,8.7-8.8,8.7c-5,0-9-3.8-9-8.6c0-2.4,1-4.7,2.8-6.4
			C-309.6,589.1-307.4,588.3-304.9,588.3z M-493.5,588.6v16.8h-4.1v-16.8H-493.5z M-478.7,588.6l6.1,9.4v-9.4h4.1v16.8h-4.1
			l-6.1-9.5v9.5h-4.1v-16.8H-478.7z M-447.6,588.6v3.3h-3.8v13.5h-4.1v-13.5h-3.9v-3.3H-447.6z M-429.2,588.6v3.3h-5.5v3.4h5.5v3.3
			h-5.5v3.5h5.5v3.3h-9.6v-16.8L-429.2,588.6z M-413.6,588.6c2.2,0,3.8,0.4,4.9,1.3c1.2,0.9,1.8,2.4,1.8,4.2c0,2.5-1.1,4.2-3.2,5.1
			l3.7,6.2h-4.9l-3.7-6.5v6.5h-4.1v-16.8H-413.6z M-392.3,588.6l6.1,9.4v-9.4h4.1v16.8h-4.1l-6.1-9.5v9.5h-4.1v-16.8H-392.3z
			 M-362.4,588.6l5.5,16.8h-4.5l-0.7-2.4h-5.9l-0.7,2.4h-4.3l5.5-16.8H-362.4z M-338.3,588.6v3.3h-3.8v13.5h-4.1v-13.5h-3.9v-3.3
			H-338.3z M-323.4,588.6v16.8h-4.1v-16.8H-323.4z M-283.3,588.6l6.1,9.4v-9.4h4.1v16.8h-4.1l-6.1-9.5v9.5h-4.1v-16.8H-283.3z
			 M-253.2,588.6l5.5,16.8h-4.5l-0.7-2.4h-5.9l-0.7,2.4h-4.3l5.5-16.8H-253.2z M-234.5,588.6v13.5h5.5v3.3h-9.5v-16.8H-234.5z
			 M-305.1,592c-2.7,0-4.8,2.1-4.8,4.9c0,2.8,2.1,4.9,4.8,4.9c2.6,0,4.7-2.2,4.7-4.9C-300.4,594.2-302.4,592-305.1,592z
			 M-365.1,593.4l-2,6.3h3.9L-365.1,593.4z M-255.9,593.4l-2,6.3h3.9L-255.9,593.4z M-413.4,591.9h-1.6v4.7h1.3
			c1.7,0,2.7-0.9,2.7-2.3C-411,592.9-411.9,591.9-413.4,591.9z">
   </path>
   <path class="st0" d="M-240.7,515.3l10.1,31.5h0.2l10.1-31.5h14.7l-23.1,61.2h-14l5.2-13.6l-17.9-47.7H-240.7z M-353.4,514
			c14.4,0,24.4,9.8,24.4,25.2v3.7h-34.9c0.5,5.6,4,11.1,11.1,11.1c4.1,0,7.7-2,9.6-5.7l13,1c-3.2,9.8-12,14.9-23.2,14.9
			c-14.4,0-24.4-9.8-24.4-25C-377.8,523.8-367.8,514-353.4,514z M-382.4,489.5V563h-12.8v-6.7h-0.2c-3.8,5.7-9.4,8-15.5,8
			c-13.3,0-22.3-12-22.3-25.2c0-13.3,8.4-25,22.1-25c6.1,0,10.7,1.9,15.1,7.8h0.2v-32.3H-382.4z M-266.2,500.4v14.9h7v10.2h-7v24.1
			c0,2.1,0.9,3.2,4.4,3.2c1.1,0,1.9-0.1,2.7-0.3V563c-2.1,0.3-4.2,0.6-6.4,0.6c-8.7,0-14-2.1-14-12.4v-25.6h-6.1v-10.2h6.1v-14.9
			L-266.2,500.4z M-459.4,489.7v12.1h-23.5v13.9h23.5l-3.7,8.3h-19.8v4.8h17.6l-3.7,8.3h-13.9v26h-14.7l0-26h-7v-8.3h7v-4.8h-7v-8.3
			h7v-26H-459.4z M-438.2,515.7v47.4H-453v-47.4H-438.2z M-310.8,489.5V563h-13.4v-73.4H-310.8z M-290.9,515.3V563h-13.4v-47.7
			H-290.9z M-407.5,525.3c-7.7,0-11.7,6.9-11.7,14.1c0,7.5,4.2,14.1,12.1,14.1c7.6,0,11.9-6.3,11.9-14.3
			C-395.3,532.1-399.2,525.3-407.5,525.3z M-352.7,524.2c-7,0-10.4,4.8-11.1,10.2h21.5C-342.8,529.8-346.3,524.2-352.7,524.2z
			 M-445.6,487.9c4,0,7.8,3.4,7.8,7.7c0,4.1-3.5,7.9-7.8,7.9c-4.5,0-7.8-4-7.8-7.7C-453.4,491.8-450.1,487.9-445.6,487.9z
			 M-297.6,487.9c4,0,7.8,3.4,7.8,7.7c0,4.1-3.5,7.9-7.8,7.9c-4.5,0-7.8-4-7.8-7.7C-305.4,491.8-302,487.9-297.6,487.9z">
   </path>
  </g>
 </g>
</svg>