<?xml version="1.0" encoding="utf-8"?>
<svg version="1.1" id="Layer_2" xmlns="http://www.w3.org/2000/svg" x="0px" y="0px" width="1024px" height="241.3px" viewBox="0 0 1024 241.3" style="enable-background:new 0 0 612 792;">
  <style type="text/css">
	.st0{fill:#007DC3;}
	.st1{fill:#FDBB30;}
</style>
  <g transform="matrix(1.777778, 0, 0, 1.777778, -32.000004, -502.720032)">
    <path class="st0" d="M351.48,354.73c0-13.4-5.73-25.21-25.08-25.21c-9.94,0-17.83,2.79-22.14,5.28l3.15,10.78 c3.93-2.48,10.2-4.54,16.14-4.54c9.82-0.02,11.43,5.56,11.43,9.14v0.85c-21.41-0.04-34.93,7.37-34.93,22.47 c0,9.22,6.89,17.87,18.87,17.87c7.36,0,13.53-2.94,17.21-7.65h0.37c0,0,2.44,10.23,15.92,6.32c-0.71-4.26-0.94-8.8-0.94-14.26 M335.49,368.9c0,1.09-0.09,2.21-0.4,3.21c-1.24,4.09-5.49,7.56-10.79,7.56c-4.43,0-7.94-2.51-7.94-7.83 c0-8.12,8.95-10.37,19.13-10.32V368.9z"/>
    <path class="st0" d="M18,311.27c0,0,13.98,57.31,16.22,66.62c2.6,10.86,7.3,14.85,20.83,12.16l8.73-35.53 c2.22-8.83,3.7-15.12,5.12-24.09h0.25c1.01,9.06,2.43,15.29,4.25,24.12c0,0,3.55,16.13,5.37,24.6c1.82,8.47,6.91,13.81,20.16,10.9 l20.81-78.77h-16.8l-7.1,34.06c-1.91,9.91-3.64,17.67-4.98,26.73h-0.24c-1.21-8.97-2.76-16.42-4.7-26.07l-7.4-34.71h-17.5 l-7.91,33.84c-2.24,10.29-4.34,18.58-5.67,27.35H47.2c-1.37-8.25-3.19-18.68-5.16-28.64c0,0-4.7-24.19-6.35-32.54"/>
    <path class="st0" d="M167.49,354.73c0-13.4-5.73-25.21-25.08-25.21c-9.94,0-17.83,2.79-22.13,5.28l3.15,10.78 c3.93-2.48,10.2-4.54,16.14-4.54c9.83-0.02,11.43,5.56,11.43,9.14v0.85c-21.41-0.04-34.93,7.37-34.93,22.47 c0,9.22,6.89,17.87,18.86,17.87c7.37,0,13.53-2.94,17.22-7.65h0.36c0,0,2.45,10.23,15.92,6.32c-0.71-4.26-0.94-8.8-0.94-14.26 M151.51,368.9c0,1.09-0.1,2.21-0.4,3.21c-1.24,4.09-5.48,7.56-10.79,7.56c-4.43,0-7.94-2.51-7.94-7.83 c0-8.12,8.95-10.37,19.13-10.32V368.9z"/>
    <polyline class="st0" points="194.16,373.31 194.16,311.27 178.16,311.27 178.16,390.04 194.16,390.04 &#9;"/>
    <path class="st0" d="M403.44,311.27v58.11c0,8.01,1.51,13.63,4.73,17.05c2.81,3,7.45,4.94,13.02,4.94c4.73,0,9.38-0.9,11.58-1.71 l-0.21-12.49c-1.63,0.4-3.51,0.71-6.08,0.71c-5.45,0-7.27-3.49-7.27-10.68v-22.24h13.92V329.9h-13.92v-18.63"/>
    <path class="st0" d="M362.14,330.88v59.17h16.5v-30.3c0-1.63,0.1-3.05,0.36-4.36c1.22-6.35,6.08-10.41,13.04-10.41 c1.92,0,3.29,0.21,4.77,0.42V329.9c-1.25-0.25-2.1-0.37-3.65-0.37c-6.16,0-13.15,3.98-16.1,12.5h-0.46v-11.15"/>
    <path class="st0" d="M205.36,330.88v59.17h16.08v-34.7c0-1.63,0.19-3.35,0.76-4.85c1.33-3.5,4.58-7.58,9.77-7.58 c6.48,0,9.52,5.49,9.52,13.4v33.73h16.06v-35.12c0-1.55,0.22-3.42,0.67-4.8c1.32-3.97,4.82-7.21,9.65-7.21 c6.58,0,9.74,5.39,9.74,14.7v32.43h16.07v-34.85c0-18.38-9.33-25.66-19.87-25.66c-4.67,0-8.35,1.17-11.68,3.21 c-2.8,1.72-5.31,4.17-7.49,7.38h-0.24c-2.54-6.38-8.52-10.59-16.31-10.59c-10.01,0-14.51,5.08-17.24,9.38h-0.24v-8.04"/>
    <path class="st1" d="M519.62,328.49c3.18,0,5.79-1.66,6.14-3.8l3.14-35.52c0-3.51-4.1-6.39-9.28-6.39c-5.17,0-9.27,2.88-9.27,6.39 l3.14,35.52C513.83,326.83,516.45,328.49,519.62,328.49"/>
    <path class="st1" d="M500.42,339.58c1.59-2.74,1.47-5.85-0.21-7.22l-29.19-20.47c-3.03-1.76-7.59,0.36-10.17,4.83 c-2.58,4.48-2.13,9.47,0.9,11.22l32.31,15.04c2.03,0.75,4.77-0.68,6.37-3.44"/>
    <path class="st1" d="M538.82,339.55c1.59,2.76,4.34,4.19,6.35,3.44l32.33-15.04c3.04-1.76,3.49-6.75,0.9-11.22 c-2.58-4.48-7.15-6.59-10.17-4.83l-29.19,20.47c-1.67,1.37-1.79,4.48-0.21,7.22"/>
    <path class="st1" d="M519.62,372.85c3.18,0,5.79,1.64,6.14,3.77l3.14,35.51c0,3.52-4.1,6.4-9.28,6.4c-5.17,0-9.27-2.88-9.27-6.4 l3.14-35.51C513.83,374.49,516.45,372.85,519.62,372.85"/>
    <path class="st1" d="M538.82,361.76c1.59-2.76,4.34-4.19,6.35-3.44l32.33,15.03c3.04,1.77,3.49,6.76,0.9,11.24 c-2.58,4.47-7.15,6.59-10.17,4.83l-29.19-20.45c-1.67-1.38-1.79-4.48-0.21-7.23"/>
    <path class="st1" d="M500.42,361.74c1.59,2.76,1.47,5.85-0.21,7.23l-29.19,20.46c-3.03,1.75-7.59-0.37-10.17-4.83 c-2.58-4.48-2.13-9.48,0.9-11.25l32.31-15.02c2.03-0.77,4.77,0.67,6.37,3.42"/>
    <path class="st1" d="M588.88,382.19c2.86,0,5.12,2.22,5.12,5.05c0,2.9-2.26,5.12-5.16,5.12c-2.89,0-5.18-2.23-5.18-5.12 c0-2.83,2.29-5.05,5.18-5.05 M588.82,383.08c-2.3,0-4.04,1.87-4.04,4.16c0,2.36,1.74,4.2,4.1,4.2c2.29,0.04,3.97-1.83,3.97-4.16 c0-2.32-1.68-4.2-4.01-4.2H588.82z M587.92,390.04h-0.98v-5.31c0.53-0.1,1.1-0.16,1.84-0.16c0.89,0,1.34,0.16,1.68,0.42 c0.32,0.22,0.54,0.64,0.54,1.12c0,0.67-0.48,1.08-1.05,1.27v0.06c0.48,0.19,0.73,0.6,0.89,1.27c0.16,0.82,0.26,1.14,0.38,1.33 h-1.03c-0.15-0.19-0.27-0.67-0.41-1.4c-0.12-0.57-0.47-0.83-1.24-0.83h-0.64V390.04z M587.92,387.05h0.67 c0.74,0,1.37-0.22,1.37-0.86c0-0.51-0.32-0.86-1.27-0.86c-0.37,0-0.59,0.03-0.77,0.07V387.05z"/>
  </g>
</svg>