<?xml version="1.0" encoding="UTF-8" standalone="no"?>
<!-- Created with Inkscape (http://www.inkscape.org/) -->

<svg
   width="252.998mm"
   height="59.874001mm"
   viewBox="0 0 252.998 59.874001"
   version="1.1"
   id="svg474"
   xmlns="http://www.w3.org/2000/svg"
   xmlns:svg="http://www.w3.org/2000/svg">
  <defs
     id="defs471">
    <clipPath
       id="clip0_776_3311">
      <rect
         width="53"
         height="60"
         fill="#ffffff"
         transform="translate(254.998,91)"
         id="rect42"
         x="0"
         y="0" />
    </clipPath>
    <clipPath
       id="clip1_776_3311">
      <rect
         width="182"
         height="34"
         fill="#ffffff"
         transform="translate(55,104)"
         id="rect45"
         x="0"
         y="0" />
    </clipPath>
  </defs>
  <g
     id="layer1">
    <g
       id="g353"
       transform="matrix(1,0,0,0.99580001,-55,-90.492065)">
      <g
         clip-path="url(#clip0_776_3311)"
         id="g18">
        <path
           d="m 292.405,118.279 c 1.246,-0.257 12.263,-5.316 13.246,-5.885 2.245,-1.299 3.014,-4.176 1.718,-6.425 -1.297,-2.25 -4.168,-3.021 -6.412,-1.722 -0.984,0.569 -10.864,7.601 -11.708,8.553 -0.968,1.092 -1.135,2.653 -0.419,3.895 0.716,1.243 2.148,1.878 3.575,1.584 z"
           fill="#ffc220"
           id="path6" />
        <path
           d="m 305.651,129.48 c -0.984,-0.568 -12.001,-5.628 -13.246,-5.884 -1.427,-0.295 -2.859,0.34 -3.575,1.583 -0.716,1.243 -0.549,2.805 0.419,3.895 0.844,0.952 10.725,7.985 11.708,8.553 2.245,1.3 5.116,0.528 6.412,-1.721 1.296,-2.25 0.526,-5.127 -1.718,-6.426 z"
           fill="#ffc220"
           id="path8" />
        <path
           d="m 281.499,129.421 c -1.432,0 -2.698,0.926 -3.157,2.311 -0.4,1.21 -1.537,13.3 -1.537,14.438 0,2.597 2.101,4.704 4.694,4.704 2.593,0 4.694,-2.106 4.694,-4.704 0,-1.138 -1.137,-13.229 -1.538,-14.438 -0.459,-1.386 -1.724,-2.311 -3.156,-2.311 z"
           fill="#ffc220"
           id="path10" />
        <path
           d="m 270.591,123.596 c -1.244,0.256 -12.263,5.315 -13.245,5.884 -2.246,1.3 -3.014,4.177 -1.718,6.426 1.296,2.25 4.167,3.021 6.412,1.721 0.983,-0.569 10.863,-7.601 11.708,-8.553 0.968,-1.092 1.135,-2.652 0.419,-3.895 -0.716,-1.242 -2.149,-1.878 -3.576,-1.583 z"
           fill="#ffc220"
           id="path12" />
        <path
           d="m 262.039,104.247 c -2.245,-1.299 -5.116,-0.528 -6.411,1.722 -1.297,2.25 -0.527,5.127 1.717,6.425 0.984,0.569 12.001,5.628 13.246,5.885 1.427,0.294 2.86,-0.34 3.576,-1.584 0.716,-1.242 0.548,-2.804 -0.419,-3.895 -0.845,-0.952 -10.725,-7.984 -11.709,-8.553 z"
           fill="#ffc220"
           id="path14" />
        <path
           d="m 281.499,91 c -2.592,0 -4.694,2.1056 -4.694,4.7041 0,1.1377 1.137,13.2289 1.537,14.4389 0.459,1.386 1.725,2.311 3.157,2.311 1.432,0 2.697,-0.926 3.156,-2.311 0.401,-1.21 1.538,-13.3002 1.538,-14.4389 0,-2.5975 -2.101,-4.7041 -4.694,-4.7041 z"
           fill="#ffc220"
           id="path16" />
      </g>
      <g
         clip-path="url(#clip1_776_3311)"
         id="g34">
        <path
           d="M 90.8044,104 86.4281,125.765 81.518,104 H 72.9903 L 68.0801,125.765 63.7065,104 H 55 l 7.0996,33.247 h 10.1319 l 4.9562,-22.075 4.9562,22.075 h 9.9097 L 99.1072,104 Z"
           fill="#0053e2"
           id="path20" />
        <path
           d="m 108.594,132.637 c -1.965,0 -3.035,-1.197 -3.035,-2.836 0,-2.128 1.696,-2.97 3.839,-3.724 1.117,-0.417 2.236,-0.85 2.992,-1.506 v 3.678 c 0,2.793 -1.474,4.388 -3.794,4.388 m 1.16,-22.518 c -5.403,0 -9.197,1.819 -10.5815,3.102 v 7.093 c 1.6065,-1.418 4.9995,-3.501 9.4655,-3.501 2.766,0 3.793,0.754 3.793,2.306 0,1.329 -1.428,1.862 -5.403,2.704 -6.026,1.241 -9.5085,3.415 -9.5085,8.6 0,4.787 3.1705,7.58 7.7685,7.58 3.851,0 6.152,-1.774 7.412,-4.158 v 3.404 h 8.302 v -16.314 c 0,-7.491 -3.929,-10.816 -11.251,-10.816"
           fill="#0053e2"
           id="path22" />
        <path
           d="m 132.73,104 h -8.617 v 33.247 h 8.617 z"
           fill="#0053e2"
           id="path24" />
        <path
           d="m 167.31,110.208 c -4.181,0 -6.883,2.494 -8.295,5.817 -0.758,-3.56 -3.276,-5.817 -6.796,-5.817 -3.986,0 -6.584,2.308 -7.901,5.55 v -4.797 h -8.482 v 26.288 h 8.617 v -14.583 c 0,-3.59 1.206,-5.629 3.794,-5.629 2.097,0 2.813,1.418 2.813,3.635 v 16.58 h 8.617 v -14.584 c 0,-3.589 1.205,-5.629 3.793,-5.629 2.098,0 2.813,1.418 2.813,3.635 v 16.581 h 8.617 v -17.783 c 0,-5.541 -2.634,-9.264 -7.59,-9.264 z"
           fill="#0053e2"
           id="path26" />
        <path
           d="m 187.846,132.637 c -1.964,0 -3.035,-1.197 -3.035,-2.836 0,-2.128 1.697,-2.97 3.84,-3.724 1.117,-0.417 2.236,-0.85 2.992,-1.506 v 3.678 c 0,2.793 -1.474,4.388 -3.797,4.388 z m 1.16,-22.518 c -5.403,0 -9.197,1.819 -10.582,3.102 v 7.093 c 1.607,-1.418 5,-3.501 9.466,-3.501 2.766,0 3.793,0.754 3.793,2.306 0,1.329 -1.428,1.862 -5.403,2.704 -6.026,1.241 -9.509,3.415 -9.509,8.6 0,4.787 3.171,7.58 7.769,7.58 3.851,0 6.152,-1.774 7.412,-4.158 v 3.404 h 8.302 v -16.314 c 0,-7.491 -3.929,-10.816 -11.251,-10.816"
           fill="#0053e2"
           id="path28" />
        <path
           d="m 211.641,118.387 v -7.426 h -8.438 v 26.288 h 8.617 v -11.172 c 0,-5.142 3.214,-6.517 6.295,-6.517 1.027,0 2.008,0.132 2.455,0.267 v -9.044 c -4.848,-0.231 -7.793,2.842 -8.929,7.604 z"
           fill="#0053e2"
           id="path30" />
        <path
           d="m 237,117.61 v -6.649 h -5.49 v -5.099 h -8.617 v 22.607 c 0,6.34 3.614,9.31 9.375,9.31 2.68,0 4.108,-0.533 4.732,-0.931 v -6.606 c -0.491,0.356 -1.296,0.622 -2.323,0.622 -1.918,0.043 -3.17,-0.799 -3.17,-3.589 v -9.665 h 5.49 z"
           fill="#0053e2"
           id="path32" />
      </g>
    </g>
  </g>
</svg>
