<svg xmlns="http://www.w3.org/2000/svg" viewBox="0 0 448 115" width="448" height="115" role="img" aria-label="DeepEval.">
  <style>
    .hero-letter { opacity: 0; transform: translateY(8px); animation: heroLetterIn 500ms cubic-bezier(.2,.8,.2,1) forwards; }
    @keyframes heroLetterIn { to { opacity: 1; transform: translateY(0); } }
    @media (prefers-reduced-motion: reduce) {
      .hero-letter { opacity: 1 !important; transform: none !important; animation: none !important; }
    }
  </style>
  <g class="hero-letter" style="animation-delay:100ms" fill="#0A0A0A"><path d="M12.67-67.20L36.10-67.20Q43.10-67.20 48.48-64.56Q53.86-61.92 57.46-57.26Q61.06-52.61 62.88-46.51Q64.70-40.42 64.70-33.60Q64.70-24.29 61.44-16.66Q58.18-9.02 51.84-4.51Q45.50 0 36.10 0L12.67 0Q10.66 0 9.22-1.39Q7.78-2.78 7.78-4.90L7.78-62.30Q7.78-64.42 9.22-65.81Q10.66-67.20 12.67-67.20M17.28-9.22L35.14-9.22Q41.95-9.22 46.18-12.58Q50.40-15.94 52.37-21.46Q54.34-26.98 54.34-33.60Q54.34-38.50 53.23-42.86Q52.13-47.23 49.78-50.64Q47.42-54.05 43.82-56.02Q40.22-57.98 35.14-57.98L16.99-57.98L17.86-58.85L17.86-8.26" transform="translate(-3.78,83.04)"/></g><g class="hero-letter" style="animation-delay:145ms" fill="#0A0A0A"><path d="M99.74 0.96Q91.78 0.96 85.92-2.35Q80.06-5.66 76.85-11.47Q73.63-17.28 73.63-24.77Q73.63-33.22 77.04-39.22Q80.45-45.22 85.92-48.43Q91.39-51.65 97.54-51.65Q102.24-51.65 106.46-49.78Q110.69-47.90 114-44.59Q117.31-41.28 119.23-36.82Q121.15-32.35 121.25-27.07Q121.15-25.15 119.71-23.90Q118.27-22.66 116.35-22.66L79.01-22.66L76.70-30.82L112.80-30.82L110.98-29.09L110.98-31.49Q110.78-34.85 108.77-37.39Q106.75-39.94 103.78-41.33Q100.80-42.72 97.54-42.72Q94.66-42.72 92.02-41.81Q89.38-40.90 87.31-38.88Q85.25-36.86 84.05-33.55Q82.85-30.24 82.85-25.34Q82.85-20.06 85.06-16.13Q87.26-12.19 91.01-10.03Q94.75-7.87 99.26-7.87Q102.82-7.87 105.12-8.59Q107.42-9.31 108.96-10.37Q110.50-11.42 111.65-12.38Q113.09-13.25 114.53-13.25Q116.26-13.25 117.41-12.05Q118.56-10.85 118.56-9.22Q118.56-7.10 116.45-5.38Q113.86-2.88 109.30-0.96Q104.74 0.96 99.74 0.96" transform="translate(-3.78,83.04)"/></g><g class="hero-letter" style="animation-delay:190ms" fill="#0A0A0A"><path d="M155.62 0.96Q147.65 0.96 141.79-2.35Q135.94-5.66 132.72-11.47Q129.50-17.28 129.50-24.77Q129.50-33.22 132.91-39.22Q136.32-45.22 141.79-48.43Q147.26-51.65 153.41-51.65Q158.11-51.65 162.34-49.78Q166.56-47.90 169.87-44.59Q173.18-41.28 175.10-36.82Q177.02-32.35 177.12-27.07Q177.02-25.15 175.58-23.90Q174.14-22.66 172.22-22.66L134.88-22.66L132.58-30.82L168.67-30.82L166.85-29.09L166.85-31.49Q166.66-34.85 164.64-37.39Q162.62-39.94 159.65-41.33Q156.67-42.72 153.41-42.72Q150.53-42.72 147.89-41.81Q145.25-40.90 143.18-38.88Q141.12-36.86 139.92-33.55Q138.72-30.24 138.72-25.34Q138.72-20.06 140.93-16.13Q143.14-12.19 146.88-10.03Q150.62-7.87 155.14-7.87Q158.69-7.87 160.99-8.59Q163.30-9.31 164.83-10.37Q166.37-11.42 167.52-12.38Q168.96-13.25 170.40-13.25Q172.13-13.25 173.28-12.05Q174.43-10.85 174.43-9.22Q174.43-7.10 172.32-5.38Q169.73-2.88 165.17-0.96Q160.61 0.96 155.62 0.96" transform="translate(-3.78,83.04)"/></g><g class="hero-letter" style="animation-delay:235ms" fill="#0A0A0A"><path d="M213.41-51.36Q220.13-51.36 225.36-48Q230.59-44.64 233.66-38.83Q236.74-33.02 236.74-25.34Q236.74-17.66 233.66-11.76Q230.59-5.86 225.41-2.50Q220.22 0.86 213.70 0.86Q210.05 0.86 206.78-0.29Q203.52-1.44 201.02-3.31Q198.53-5.18 196.94-7.30Q195.36-9.41 194.98-11.23L197.57-12.48L197.57 14.30Q197.57 16.42 196.18 17.81Q194.78 19.20 192.77 19.20Q190.66 19.20 189.31 17.81Q187.97 16.42 187.97 14.30L187.97-45.79Q187.97-47.81 189.31-49.25Q190.66-50.69 192.77-50.69Q194.78-50.69 196.18-49.25Q197.57-47.81 197.57-45.79L197.57-39.17L196.03-40.03Q196.32-41.86 197.86-43.82Q199.39-45.79 201.74-47.52Q204.10-49.25 207.12-50.30Q210.14-51.36 213.41-51.36M212.35-42.53Q207.74-42.53 204.34-40.27Q200.93-38.02 199.01-34.18Q197.09-30.34 197.09-25.34Q197.09-20.45 199.01-16.46Q200.93-12.48 204.34-10.22Q207.74-7.97 212.35-7.97Q216.86-7.97 220.22-10.22Q223.58-12.48 225.55-16.46Q227.52-20.45 227.52-25.34Q227.52-30.24 225.55-34.13Q223.58-38.02 220.22-40.27Q216.86-42.53 212.35-42.53" transform="translate(-3.78,83.04)"/></g><g class="hero-letter" style="animation-delay:280ms" fill="#0A0A0A"><path d="M253.54-67.20L286.75-67.20Q288.77-67.20 290.16-65.86Q291.55-64.51 291.55-62.50Q291.55-60.48 290.16-59.23Q288.77-57.98 286.75-57.98L257.76-57.98L258.72-59.62L258.72-38.11L257.86-39.07L282.43-39.07Q284.45-39.07 285.84-37.73Q287.23-36.38 287.23-34.27Q287.23-32.26 285.84-31.01Q284.45-29.76 282.43-29.76L258.05-29.76L258.72-30.62L258.72-8.45L258.05-9.22L286.75-9.22Q288.77-9.22 290.16-7.82Q291.55-6.43 291.55-4.61Q291.55-2.59 290.16-1.30Q288.77 0 286.75 0L253.54 0Q251.52 0 250.08-1.39Q248.64-2.78 248.64-4.90L248.64-62.30Q248.64-64.42 250.08-65.81Q251.52-67.20 253.54-67.20" transform="translate(-3.78,83.04)"/></g><g class="hero-letter" style="animation-delay:325ms" fill="#0A0A0A"><path d="M302.11-50.98Q303.55-50.98 304.85-50.21Q306.14-49.44 306.72-47.90L321.79-13.06L319.97-12.19L335.23-47.81Q336.58-50.98 339.55-50.88Q341.47-50.88 342.77-49.68Q344.06-48.48 344.06-46.56Q344.06-45.98 343.87-45.36Q343.68-44.74 343.39-44.16L325.15-3.07Q323.90-0.19 321.02 0Q319.58 0.19 318.19-0.62Q316.80-1.44 316.03-3.07L297.89-44.16Q297.70-44.54 297.50-45.17Q297.31-45.79 297.31-46.66Q297.31-48.10 298.61-49.54Q299.90-50.98 302.11-50.98" transform="translate(-3.78,83.04)"/></g><g class="hero-letter" style="animation-delay:370ms" fill="#0A0A0A"><path d="M395.04-51.26Q397.15-51.26 398.50-49.87Q399.84-48.48 399.84-46.37L399.84-4.90Q399.84-2.78 398.50-1.39Q397.15 0 395.04 0Q393.02 0 391.63-1.39Q390.24-2.78 390.24-4.90L390.24-11.81L392.26-11.52Q392.26-9.79 390.86-7.68Q389.47-5.57 387.07-3.60Q384.67-1.63 381.41-0.34Q378.14 0.96 374.40 0.96Q367.78 0.96 362.50-2.45Q357.22-5.86 354.14-11.81Q351.07-17.76 351.07-25.34Q351.07-33.12 354.14-39.02Q357.22-44.93 362.45-48.29Q367.68-51.65 374.11-51.65Q378.24-51.65 381.74-50.30Q385.25-48.96 387.84-46.85Q390.43-44.74 391.82-42.38Q393.22-40.03 393.22-37.92L390.24-37.63L390.24-46.37Q390.24-48.38 391.63-49.82Q393.02-51.26 395.04-51.26M375.46-7.87Q379.97-7.87 383.42-10.18Q386.88-12.48 388.80-16.46Q390.72-20.45 390.72-25.34Q390.72-30.34 388.80-34.27Q386.88-38.21 383.42-40.51Q379.97-42.82 375.46-42.82Q371.04-42.82 367.63-40.51Q364.22-38.21 362.26-34.27Q360.29-30.34 360.29-25.34Q360.29-20.45 362.26-16.46Q364.22-12.48 367.63-10.18Q371.04-7.87 375.46-7.87" transform="translate(-3.78,83.04)"/></g><g class="hero-letter" style="animation-delay:415ms" fill="#0A0A0A"><path d="M423.65-66.14L423.65-4.90Q423.65-2.78 422.26-1.39Q420.86 0 418.85 0Q416.83 0 415.44-1.39Q414.05-2.78 414.05-4.90L414.05-66.14Q414.05-68.26 415.49-69.65Q416.93-71.04 418.94-71.04Q421.06-71.04 422.35-69.65Q423.65-68.26 423.65-66.14" transform="translate(-3.78,83.04)"/></g><g class="hero-letter" style="animation-delay:460ms" fill="#4400FF"><path d="M442.66-0.10L441.60-0.10Q439.20-0.10 437.90-1.44Q436.61-2.78 436.61-5.18L436.61-6.91Q436.61-9.31 437.90-10.66Q439.20-12 441.60-12L442.66-12Q445.06-12 446.30-10.66Q447.55-9.31 447.55-6.91L447.55-5.18Q447.55-2.78 446.30-1.44Q445.06-0.10 442.66-0.10" transform="translate(-3.78,83.04)"/></g>
</svg>
